<svg width="30" height="30" viewBox="0 0 30 30" fill="none" xmlns="http://www.w3.org/2000/svg">
<g clip-path="url(#clip0_1293_4337)">
<g clip-path="url(#clip1_1293_4337)">
<path d="M0.3722 11.1473C0.499126 11.1654 1.05713 11.2769 1.61799 11.4109C2.87636 11.6844 3.70312 11.682 6.60081 11.3938C9.20582 11.12 10.3338 11.1706 11.6539 11.5729C12.4675 11.823 12.7036 11.9868 13.9503 13.0597C15.0364 14.0276 15.408 14.2768 15.7037 14.2849C16.0564 14.2971 15.9878 14.2032 15.0583 13.3979C14.1037 12.5728 13.9385 12.3431 13.2035 10.8404C12.2737 8.96347 12.1383 8.43347 12.5688 8.34459C12.7221 8.30227 12.9187 8.33435 13.0067 8.40291C13.0948 8.47155 13.9427 8.54627 14.874 8.56483C16.7592 8.59907 17.7305 8.93171 18.6491 9.82963C19.6461 10.8089 20.0728 12.2937 19.7981 13.6966C19.7391 14.0347 19.6773 14.3503 19.6802 14.3728C19.6859 14.4176 20.3651 14.5024 21.1976 14.5448L22.6938 14.6399L21.9192 13.8946C20.4387 12.498 19.878 11.4748 19.1804 8.93003C18.5577 6.70627 18.7133 6.50411 19.9777 7.89395C20.3064 8.25123 20.6637 8.38827 21.9723 8.70091C23.3382 9.01763 23.6732 9.15747 24.3775 9.70643C25.3585 10.4711 25.866 11.4327 25.7794 12.3556C25.7405 12.8508 25.5907 13.0978 25.0474 13.7254L24.3525 14.4976L33.5743 12.5604C34.6149 12.2628 33.1801 13.5417 33.8303 13.2197L34.493 12.9076L39.922 9.10483C39.6036 8.91723 38.8016 7.80915 38.5215 7.38875C37.6224 6.02091 41.5362 8.73683 41.8765 8.29459C42.0807 8.02931 40.7422 7.09275 40.9457 7.53427C41.1857 8.08523 39.6415 6.75099 40.8838 7.25451C42.3508 7.83195 39.1099 6.51563 39.6232 7.52211C39.8461 7.93835 40.0358 8.45011 40.0489 8.64219C40.0397 8.83715 39.8341 9.03619 39.922 9.10483C40.0101 9.17347 41.1014 9.07859 41.9945 8.88539C43.5926 8.53419 43.8408 8.52555 43.807 8.88323C43.7703 9.21843 40.6847 11.9732 39.1501 12.111C38.3319 12.1807 37.6086 12.284 37.56 12.3471C37.5211 12.3976 37.5467 13.0442 37.6408 13.7847C37.8948 16.2262 45.0519 12.8129 43.3431 14.8767C42.2456 16.2244 42.2456 16.2244 41.4777 16.3334C41.0443 16.3998 46.5152 10.3204 38.7634 15.7487C38.6754 15.6801 38.1872 14.3602 38.2281 13.0783C38.2339 12.6785 37.7338 15.2065 37.8488 14.9525L34.3168 13.6596L33.5743 12.5604C32.3816 12.803 24.0002 15.1124 23.9715 15.3326C23.9607 15.4252 24.0955 15.7729 24.2596 16.0827C24.7528 16.932 24.8172 17.9727 24.4728 18.917C23.9763 20.2682 23.3987 20.6266 20.2836 21.4325C19.6581 21.5917 18.8965 21.9279 18.5877 22.1723C17.9186 22.7019 17.4852 22.7683 17.3864 22.3476C17.3355 22.1261 17.4397 21.9647 17.8611 21.6261C18.1476 21.3846 18.6423 20.8201 18.9379 20.3836C19.3961 19.7098 19.5093 19.3535 19.6124 18.3828C19.7196 17.3545 19.8094 17.0809 20.2761 16.4745C20.7136 15.906 20.9835 15.712 21.581 15.5108C22.0156 15.3644 22.3581 15.2069 22.3524 15.162C22.3284 15.0624 20.0277 14.967 19.7784 15.0557C19.692 15.0895 19.5415 15.5988 19.4442 16.1697C19.217 17.5894 18.3036 18.9593 17.0971 19.7168C15.6886 20.5796 12.1528 21.0172 11.3313 20.4375C11.193 20.3296 11.2845 20.1584 11.6751 19.7555C13.4794 17.9076 13.5571 17.8064 14.0959 16.6095C14.4311 15.8601 14.7601 15.3281 14.9465 15.1904C15.2513 15.0036 15.4005 15.0188 16.7612 15.473C17.5427 15.7386 17.9704 15.6272 17.9454 15.1631C17.926 14.7437 17.6453 14.5856 17.3336 14.8076C17.1764 14.9073 16.6801 14.9247 16.2267 14.8341C15.1359 14.6306 15.0495 14.6644 13.6971 15.6113C10.9826 17.5178 8.85552 18.1641 6.77275 17.7332C5.67903 17.5072 5.54639 17.4443 4.23559 16.4024C2.91505 15.373 2.21425 14.5842 0.239384 11.9736C-0.128724 11.4845 -0.0628959 11.1114 0.3722 11.1473ZM2.83158 12.5792C3.69829 12.891 4.41124 13.0627 4.42212 12.97C4.433 12.8775 4.32668 12.7542 4.17175 12.694C4.03911 12.6311 3.86991 12.4588 3.79561 12.32C3.72533 12.1237 3.33884 12.0246 2.46865 11.9528C1.78256 11.9031 1.23882 11.9037 1.24168 11.9261C1.24739 11.971 1.96487 12.2675 2.83158 12.5792ZM1.3364 12.8489C1.57535 13.0352 1.8663 13.363 2.00919 13.5956C2.23896 13.9769 2.33101 13.988 3.25213 13.8368C3.80961 13.766 4.2596 13.6519 4.25389 13.607C4.23391 13.45 0.941439 12.2379 0.926543 12.388C0.912808 12.4581 1.09744 12.6627 1.3364 12.8489ZM4.87497 12.8784C5.10589 13.1796 5.45348 13.3293 6.19844 13.4855C6.7593 13.6195 7.24185 13.6722 7.27102 13.6343C7.3099 13.5837 6.92806 13.1648 6.43874 12.7026C5.60699 11.9532 5.48408 11.8776 5.02553 11.9244C4.4429 11.9756 4.38109 12.2912 4.87497 12.8784ZM2.90488 14.7588C3.08266 14.9984 3.28789 15.0977 3.59036 15.0707C4.02947 15.0492 7.04678 14.1872 7.13428 14.0735C7.16345 14.0356 6.74494 13.9519 6.21494 13.8824C5.38649 13.7824 2.87929 14.1122 2.70429 14.3396C2.6654 14.3901 2.75798 14.5836 2.90488 14.7588ZM7.0425 12.7285C7.58499 13.2524 7.96629 13.489 8.35562 13.6106C8.96394 13.7613 10.4208 13.7245 10.5569 13.5476C10.6055 13.4844 10.1413 13.0418 9.52512 12.5615L8.41834 11.6988L7.36575 11.7071C6.79972 11.7105 6.32172 11.7827 6.32056 11.8626C6.2971 11.9454 6.64121 12.3348 7.0425 12.7285ZM4.22078 16.1078C4.59807 16.4019 5.05886 16.6398 5.27498 16.6466C5.72952 16.6572 9.44126 14.3961 9.407 14.1268C9.39555 14.0371 9.11258 14.0388 8.79352 14.1136C8.46476 14.2009 7.19136 14.5222 5.9626 14.8379C4.73384 15.1535 3.68347 15.4464 3.63486 15.5096C3.58339 15.5504 3.85606 15.8236 4.22078 16.1078ZM10.2643 12.6728C11.47 13.5115 12.3898 13.8849 12.4196 13.5847C12.4305 13.4921 12.2557 13.2749 12.0166 13.0887C11.7777 12.9024 11.4868 12.5746 11.3467 12.3644C11.1604 12.0574 10.9397 11.9258 10.2045 11.757C8.80377 11.4332 8.82547 11.6927 10.2643 12.6728ZM6.02503 17.11C6.74188 17.6687 9.16401 16.8481 11.2049 15.3464C11.8894 14.8491 12.6019 14.3938 12.7677 14.3613C13.3835 14.2147 12.973 14.016 12.0891 14.0143C10.7409 14.0145 10.1016 14.2439 8.62405 15.2751C7.90747 15.7879 7.02518 16.3331 6.68552 16.5131C5.92959 16.894 5.84895 16.9727 6.02503 17.11ZM14.2804 9.59779C14.8498 9.79915 15.3535 9.92899 15.3827 9.89107C15.5091 9.72683 15.1879 9.07219 14.9689 9.04299C14.4166 8.97635 13.2233 9.03667 13.2348 9.12643C13.2433 9.19371 13.711 9.39651 14.2804 9.59779ZM13.3758 10.1459C13.6833 10.426 14.6444 10.589 14.8 10.3868C14.9167 10.2352 14.8537 10.1862 13.8795 9.83115C13.0477 9.52635 12.8362 9.64443 13.3758 10.1459ZM12.1202 12.7449C12.4741 13.1218 12.9142 13.4649 13.1012 13.5096C13.2784 13.5668 13.6135 13.7067 13.8536 13.813C14.5544 14.1572 14.235 13.605 13.2791 12.86C12.512 12.262 11.4132 11.7289 11.4446 11.9757C11.4503 12.0206 11.7441 12.3709 12.1202 12.7449ZM8.53836 17.452C8.82762 17.6774 11.1937 16.7728 12.3208 16.014C12.9567 15.5799 13.7041 15.1316 13.97 14.9952C14.6229 14.6957 14.3645 14.5348 13.428 14.6536C12.982 14.7103 12.4542 14.9255 12.1037 15.198C10.8171 16.2164 10.0725 16.6872 9.34404 16.9279C8.51952 17.2149 8.3623 17.3148 8.53836 17.452ZM14.1005 11.4788C14.4148 11.724 16.8962 12.0815 17.0449 11.9144C17.0935 11.8512 16.8083 11.5682 16.431 11.2741C15.7896 10.7742 15.6598 10.7336 14.7747 10.8119C13.7433 10.8972 13.5723 11.0672 14.1005 11.4788ZM15.9738 9.90715C16.0527 10.1708 16.3859 10.6528 16.7215 10.9751L17.3199 11.5831L17.4133 11.0696C17.5615 10.2756 17.2993 9.28283 16.8945 9.12907C16.085 8.82147 15.7276 9.12907 15.9738 9.90715ZM15.6746 13.4336C16.2486 13.7597 18.1542 14.1333 18.3098 13.9312C18.339 13.8932 18.1749 13.5835 17.9411 13.2598C17.4079 12.5409 16.9179 12.3409 15.3336 12.1773L14.2319 12.0664L14.6349 12.5624C14.8629 12.8412 15.3311 13.2264 15.6746 13.4336ZM17.7577 10.1252C17.7756 11.9584 18.3013 13.4192 19.0199 13.6358C19.4442 13.7644 19.5311 13.4683 19.3524 12.4194C19.1748 11.2905 18.6851 10.2013 18.1945 9.81899C17.7921 9.50531 17.7504 9.53339 17.7577 10.1252ZM20.0724 8.81675C20.3839 9.03939 20.9459 9.53803 21.3346 9.92187C21.9457 10.5396 22.0686 10.6152 22.195 10.451C22.3797 10.2109 22.1866 9.49451 21.8847 9.25923C21.7715 9.17099 21.4394 9.05355 21.173 9.00755C20.894 8.95179 20.4863 8.77555 20.2726 8.60891C19.933 8.34427 19.6608 8.25339 19.5539 8.39235C19.5345 8.41763 19.7734 8.60387 20.0724 8.81675ZM19.7217 9.53387C19.7863 10.1299 19.94 10.27 20.6821 10.4037L21.2499 10.5026L20.7268 9.95347C20.4513 9.65779 20.1197 9.27811 20.0203 9.11979C19.7585 8.75403 19.6515 8.89299 19.7217 9.53387ZM14.9935 16.9856C15.4074 17.3891 16.245 17.2941 16.9015 16.7548C17.1881 16.5132 17.4174 16.2675 17.4214 16.21C17.4071 16.0978 15.832 15.7392 15.3901 15.7384C15.2437 15.7455 15.063 15.928 14.9188 16.22C14.7386 16.5848 14.7489 16.7545 14.9935 16.9856ZM12.157 20.0704C12.3834 20.2469 12.8609 19.9925 14.0251 19.0808C14.7068 18.5611 15.3564 18.0568 15.4942 17.9823C15.8213 17.7926 15.771 17.7533 15.0008 17.5776L14.3954 17.4492L13.6537 18.387C13.2327 18.9079 12.7449 19.4372 12.5585 19.5749C12.0799 19.9092 12.0313 19.9724 12.157 20.0704ZM20.3177 11.191C20.4647 11.3661 20.7694 11.6239 21.0221 11.74C21.6281 12.0506 22.9367 12.3632 23.034 12.2369C23.2089 12.0095 21.527 10.9006 20.8673 10.7906C20.0903 10.6499 19.9777 10.744 20.3177 11.191ZM13.5824 20.2315C13.8894 20.3293 14.4377 20.0088 14.8267 19.5035C15.2447 18.9602 14.9406 18.8848 14.3133 19.3863C14.0142 19.618 13.6928 19.8527 13.619 19.8962C13.3365 20.0803 13.3229 20.1504 13.5824 20.2315ZM22.7067 10.4658C22.7352 11.1348 22.8391 11.418 23.1158 11.6337C23.556 11.9768 23.6144 11.901 23.8358 10.8811C23.9829 10.167 23.9589 10.0674 23.5439 9.74395C22.7767 9.14595 22.6446 9.26531 22.7067 10.4658ZM15.097 19.9365C15.2856 20.0836 16.8524 19.4856 17.0955 19.1698C17.3676 18.816 17.5258 17.1201 17.2846 17.0937C17.0307 17.0576 14.9335 19.8091 15.097 19.9365ZM18.2979 16.0644C18.0525 16.5402 17.8717 17.1674 17.8642 17.4648C17.8791 17.7592 17.8635 18.1716 17.8543 18.3666C17.7838 19.0596 18.4416 17.9956 18.7923 16.8339C19.1596 15.6244 19.2071 15.1966 18.9436 15.1731C18.7469 15.1411 18.8149 15.0526 18.2979 16.0644ZM21.2603 12.6331C21.386 12.7312 21.7748 13.115 22.1383 13.4792C22.5676 13.9149 22.914 14.1445 23.1079 14.1541C23.3686 14.1552 23.4046 14.0822 23.3779 13.5156L23.3523 12.8691L22.282 12.5604C21.2341 12.2488 20.8521 12.2745 21.2603 12.6331ZM24.0324 11.3577C23.6529 13.1843 23.8175 14.121 24.4476 13.642C25.4477 12.8652 25.5241 11.7725 24.6141 10.4972C24.3494 10.1091 24.2814 10.1975 24.0324 11.3577ZM20.285 17.6133C20.4016 17.9064 21.4439 17.7284 21.914 17.3267C22.4996 16.8533 22.3932 16.73 21.4521 16.7241C20.9752 16.7163 20.7163 16.8176 20.5121 17.0829C20.3565 17.2851 20.261 17.5138 20.285 17.6133ZM21.5162 16.2486C21.5791 16.2976 21.8622 16.2959 22.1395 16.2492C22.5506 16.1856 22.6758 16.1014 22.7113 15.846C22.7537 15.5556 22.6965 15.5516 22.1562 15.7569C21.5072 15.9989 21.3527 16.1212 21.5162 16.2486ZM20.0045 18.9714L19.8947 19.5325L20.3384 19.1912C20.5763 19.0128 20.8668 18.7136 20.968 18.5298C21.1539 18.2098 21.1511 18.1874 20.7286 18.1612C20.2169 18.1464 20.1362 18.2251 20.0045 18.9714ZM18.7582 21.3754C18.8211 21.4244 19.2265 21.316 19.693 21.1541C20.1374 20.9951 20.7028 20.8093 20.9173 20.7136C21.2878 20.5982 21.3336 20.5126 21.3789 19.8C21.4139 19.3624 21.3556 18.9936 21.2635 18.9825C21.1492 18.9742 20.8752 19.2256 20.6099 19.5443C20.3572 19.8728 19.8413 20.3601 19.4907 20.6326C18.6673 21.2844 18.6576 21.297 18.7582 21.3754ZM23.1937 16.3434C23.0759 17.0196 23.6666 19.2588 23.8902 18.9681C24.1333 18.6523 24.2685 17.2216 24.093 16.822C23.9021 16.3902 23.394 15.691 23.3357 15.7668C23.3065 15.8047 23.2487 16.0628 23.1937 16.3434ZM21.7849 19.4293C21.7168 19.9624 21.7098 20.442 21.7601 20.4812C21.8984 20.5891 22.6115 20.3161 22.9912 20.0057C23.2805 19.7866 23.2898 19.5916 23.1241 18.7348C22.9133 17.7014 22.7453 17.4492 22.4279 17.6262C22.1329 17.8005 21.9046 18.4109 21.7849 19.4293ZM38.8794 15.5264C38.8342 15.7943 41.0003 13.7378 41.0442 13.9944L41.1391 14.4726L41.5955 13.6964C41.8563 13.2529 39.9686 15.1828 40.0642 14.9541L40.2455 14.5092L39.6411 14.7456C38.9058 15.0214 38.9864 14.9428 38.8794 15.5264ZM41.217 13.9527C41.4382 14.7112 41.7994 15.2353 42.0167 15.1622C42.3621 15.0271 42.0952 13.9096 41.5282 13.1038C41.3602 12.8516 41.3156 12.8572 41.1909 13.1238C41.1217 13.2922 41.1353 13.6667 41.217 13.9527ZM41.3992 14.736C41.0176 15.3886 41.0919 15.5273 41.7163 15.448C42.1846 15.3886 43.3123 14.3676 43.5045 13.8302C43.604 13.544 41.1585 14.9177 40.9447 14.7511C40.8693 14.6923 42.0512 13.6272 41.3992 14.736Z" fill="black"/>
</g>
</g>
<defs>
<clipPath id="clip0_1293_4337">
<rect width="30" height="30" fill="white"/>
</clipPath>
<clipPath id="clip1_1293_4337">
<rect width="31" height="16" fill="white" transform="translate(0 7)"/>
</clipPath>
</defs>
</svg>
