<svg width="227" height="64" viewBox="0 0 227 64" fill="none" xmlns="http://www.w3.org/2000/svg">
<path d="M17.568 8.416L18.496 9.792C16.2987 11.2427 13.9307 13.5573 11.392 16.736C8.85333 19.8933 6.86933 23.1573 5.44 26.528C5.14133 27.232 4.87467 27.7013 4.64 27.936C4.42667 28.1707 4.10667 28.288 3.68 28.288C3.27467 28.288 2.90133 28.1493 2.56 27.872C2.24 27.5733 2.08 27.136 2.08 26.56C2.08 25.9627 2.15467 24.8427 2.304 23.2C2.47467 21.536 2.56 20.3627 2.56 19.68C2.56 14.88 2.02667 11.008 0.96 8.064L3.296 7.424C4.512 9.536 5.12 13.344 5.12 18.848C5.12 20.64 5.088 22.0693 5.024 23.136C8.43733 16.1387 12.6187 11.232 17.568 8.416ZM24.1105 24.768L24.8465 25.312C24.5478 25.952 23.9932 26.56 23.1825 27.136C22.3932 27.712 21.6678 28 21.0065 28C19.7478 28 19.1185 27.3387 19.1185 26.016C19.1185 25.3973 19.2785 24.6613 19.5985 23.808L18.4145 25.024C17.2625 26.1973 16.2598 26.9867 15.4065 27.392C14.5745 27.7973 13.7532 28 12.9425 28C12.1318 28 11.5132 27.776 11.0865 27.328C10.6812 26.8587 10.4785 26.2187 10.4785 25.408C10.4785 23.9147 11.0545 22.4427 12.2065 20.992C13.3585 19.52 14.8305 18.3253 16.6225 17.408C18.4145 16.4907 20.2065 16.0213 21.9985 16L22.0625 17.056L20.7185 17.344C18.7772 17.7707 17.0598 18.624 15.5665 19.904C14.0945 21.184 13.3585 22.464 13.3585 23.744C13.3585 25.0027 13.8705 25.632 14.8945 25.632C15.8545 25.632 17.0385 24.96 18.4465 23.616C19.8545 22.272 21.0278 20.6933 21.9665 18.88L23.3105 19.68C21.9878 22.3467 21.3265 24.0427 21.3265 24.768C21.3265 25.0667 21.4225 25.3227 21.6145 25.536C21.8278 25.728 22.0305 25.824 22.2225 25.824C22.4358 25.824 22.5745 25.8133 22.6385 25.792C22.7025 25.7707 22.7665 25.7493 22.8305 25.728C22.8945 25.6853 22.9692 25.632 23.0545 25.568C23.1612 25.504 23.2465 25.44 23.3105 25.376C23.3958 25.312 23.5238 25.216 23.6945 25.088C23.8652 24.96 24.0038 24.8533 24.1105 24.768ZM34.3425 16.672C34.8758 16.672 35.3132 16.8533 35.6545 17.216C35.9958 17.5787 36.1665 18.048 36.1665 18.624C36.1665 19.776 35.5052 20.992 34.1825 22.272L33.4145 21.664C33.7132 21.0027 33.8625 20.5227 33.8625 20.224C33.8625 19.648 33.5425 19.36 32.9025 19.36C32.2625 19.36 31.6545 19.7653 31.0785 20.576C30.5025 21.3867 29.8198 22.6453 29.0305 24.352C28.2625 26.0373 27.6758 27.232 27.2705 27.936L25.4465 27.136C26.6198 24.4693 27.2918 22.9013 27.4625 22.432C28.0385 20.768 28.3265 18.656 28.3265 16.096L30.1185 15.616C30.0545 17.0027 29.9585 18.08 29.8305 18.848C29.7025 19.5947 29.3932 20.8213 28.9025 22.528C31.0572 18.624 32.8705 16.672 34.3425 16.672ZM47.2215 15.488L46.9335 16.736C46.5708 16.6933 46.1015 16.672 45.5255 16.672C43.3922 16.672 42.3255 17.376 42.3255 18.784C42.3255 19.0827 42.7522 19.9573 43.6055 21.408C44.4802 22.8587 44.9175 23.8293 44.9175 24.32C44.9175 25.472 44.5228 26.3787 43.7335 27.04C42.9655 27.68 41.9308 28 40.6295 28C38.8375 28 37.3975 27.008 36.3095 25.024L37.5255 24.16C37.8242 24.3947 38.1442 24.6827 38.4855 25.024C38.8268 25.344 39.0828 25.568 39.2535 25.696C39.6588 26.0587 40.1068 26.24 40.5975 26.24C41.0882 26.24 41.5148 26.0693 41.8775 25.728C42.2402 25.3653 42.4215 24.928 42.4215 24.416C42.4215 23.8827 41.9522 22.9013 41.0135 21.472C40.0962 20.0427 39.6375 19.04 39.6375 18.464C39.6375 17.4187 40.0748 16.6187 40.9495 16.064C41.8455 15.5093 43.0082 15.232 44.4375 15.232C45.8882 15.232 46.8162 15.3173 47.2215 15.488ZM61.0793 24.768L61.8153 25.312C61.5166 25.952 60.9619 26.56 60.1513 27.136C59.3619 27.712 58.6366 28 57.9753 28C56.7166 28 56.0873 27.3387 56.0873 26.016C56.0873 25.3973 56.2473 24.6613 56.5673 23.808L55.3833 25.024C54.2313 26.1973 53.2286 26.9867 52.3753 27.392C51.5433 27.7973 50.7219 28 49.9113 28C49.1006 28 48.4819 27.776 48.0553 27.328C47.6499 26.8587 47.4473 26.2187 47.4473 25.408C47.4473 23.9147 48.0233 22.4427 49.1753 20.992C50.3273 19.52 51.7993 18.3253 53.5913 17.408C55.3833 16.4907 57.1753 16.0213 58.9673 16L59.0313 17.056L57.6873 17.344C55.7459 17.7707 54.0286 18.624 52.5353 19.904C51.0633 21.184 50.3273 22.464 50.3273 23.744C50.3273 25.0027 50.8393 25.632 51.8633 25.632C52.8233 25.632 54.0073 24.96 55.4153 23.616C56.8233 22.272 57.9966 20.6933 58.9353 18.88L60.2793 19.68C58.9566 22.3467 58.2953 24.0427 58.2953 24.768C58.2953 25.0667 58.3913 25.3227 58.5833 25.536C58.7966 25.728 58.9993 25.824 59.1913 25.824C59.4046 25.824 59.5433 25.8133 59.6073 25.792C59.6713 25.7707 59.7353 25.7493 59.7993 25.728C59.8633 25.6853 59.9379 25.632 60.0233 25.568C60.1299 25.504 60.2153 25.44 60.2793 25.376C60.3646 25.312 60.4926 25.216 60.6633 25.088C60.8339 24.96 60.9726 24.8533 61.0793 24.768ZM75.7593 24.128L76.4313 24.64C75.9619 25.5787 75.3113 26.368 74.4793 27.008C73.6686 27.648 72.9326 27.968 72.2713 27.968C71.6099 27.968 71.0873 27.776 70.7033 27.392C70.3193 27.008 70.1273 26.528 70.1273 25.952C70.1273 25.376 70.4899 24.3733 71.2153 22.944C71.9619 21.4933 72.3353 20.4267 72.3353 19.744C72.3353 19.4453 72.2073 19.1787 71.9513 18.944C71.7166 18.688 71.4286 18.56 71.0873 18.56C69.9993 18.56 68.9006 19.392 67.7913 21.056C66.6819 22.6987 65.4446 25.0773 64.0793 28.192L62.1593 27.52C62.5646 25.0453 63.1406 22.6347 63.8873 20.288C64.6553 17.92 65.3593 16.224 65.9993 15.2L67.3113 15.616C66.7139 17.1307 65.9566 19.744 65.0393 23.456C67.9833 18.4213 70.6926 15.904 73.1673 15.904C73.7006 15.904 74.1379 16.0853 74.4793 16.448C74.8419 16.8107 75.0233 17.2373 75.0233 17.728C75.0233 18.2187 74.9593 18.6667 74.8313 19.072C74.7033 19.456 74.2979 20.3733 73.6153 21.824C72.9539 23.2533 72.6233 24.1493 72.6233 24.512C72.6233 24.8747 72.7299 25.1627 72.9433 25.376C73.1566 25.568 73.3593 25.664 73.5513 25.664C73.7433 25.664 73.9033 25.632 74.0313 25.568C74.1593 25.504 74.2979 25.408 74.4473 25.28C74.6179 25.152 74.7673 25.0347 74.8953 24.928C75.0233 24.8213 75.1726 24.6827 75.3433 24.512C75.5353 24.32 75.6739 24.192 75.7593 24.128ZM90.923 24.768L91.659 25.312C91.3603 25.952 90.8057 26.56 89.995 27.136C89.2057 27.712 88.4803 28 87.819 28C86.5603 28 85.931 27.3387 85.931 26.016C85.931 25.3973 86.091 24.6613 86.411 23.808L85.227 25.024C84.075 26.1973 83.0723 26.9867 82.219 27.392C81.387 27.7973 80.5657 28 79.755 28C78.9443 28 78.3257 27.776 77.899 27.328C77.4937 26.8587 77.291 26.2187 77.291 25.408C77.291 23.9147 77.867 22.4427 79.019 20.992C80.171 19.52 81.643 18.3253 83.435 17.408C85.227 16.4907 87.019 16.0213 88.811 16L88.875 17.056L87.531 17.344C85.5897 17.7707 83.8723 18.624 82.379 19.904C80.907 21.184 80.171 22.464 80.171 23.744C80.171 25.0027 80.683 25.632 81.707 25.632C82.667 25.632 83.851 24.96 85.259 23.616C86.667 22.272 87.8403 20.6933 88.779 18.88L90.123 19.68C88.8003 22.3467 88.139 24.0427 88.139 24.768C88.139 25.0667 88.235 25.3227 88.427 25.536C88.6403 25.728 88.843 25.824 89.035 25.824C89.2483 25.824 89.387 25.8133 89.451 25.792C89.515 25.7707 89.579 25.7493 89.643 25.728C89.707 25.6853 89.7817 25.632 89.867 25.568C89.9737 25.504 90.059 25.44 90.123 25.376C90.2083 25.312 90.3363 25.216 90.507 25.088C90.6777 24.96 90.8163 24.8533 90.923 24.768ZM124.082 22.208L126.354 22.176V23.488C126.098 23.4453 125.799 23.424 125.458 23.424C125.117 23.424 124.733 23.4453 124.306 23.488C124.306 25.1307 123.517 26.7947 121.938 28.48C120.359 30.1653 118.45 31.5307 116.21 32.576C113.991 33.6427 111.922 34.176 110.002 34.176C108.999 34.176 108.178 33.92 107.538 33.408C106.919 32.896 106.61 32.224 106.61 31.392C106.61 30.1547 107.431 28.864 109.074 27.52C110.717 26.176 112.637 25.0667 114.834 24.192C117.031 23.3173 119.015 22.8053 120.786 22.656C120.573 22.336 120.242 22.0587 119.794 21.824C119.346 21.5893 118.429 21.2267 117.042 20.736C115.655 20.224 114.674 19.6693 114.098 19.072C113.522 18.4533 113.234 17.5893 113.234 16.48C113.234 15.3707 113.831 14.1013 115.026 12.672C116.221 11.2427 117.629 10.048 119.25 9.088C120.893 8.10667 122.333 7.616 123.57 7.616C124.125 7.616 124.583 7.81867 124.946 8.224C125.309 8.608 125.49 9.088 125.49 9.664C125.49 10.6027 124.925 11.7867 123.794 13.216C122.663 14.624 121.405 15.7013 120.018 16.448L119.25 15.36C120.082 14.9333 120.807 14.272 121.426 13.376C122.066 12.4587 122.386 11.6693 122.386 11.008C122.386 10.3467 122.034 10.016 121.33 10.016C120.327 10.016 119.175 10.6453 117.874 11.904C116.594 13.1413 115.954 14.304 115.954 15.392C115.954 16.1387 116.146 16.7253 116.53 17.152C116.914 17.5787 117.885 18.112 119.442 18.752C120.999 19.3707 122.109 19.9253 122.77 20.416C123.431 20.8853 123.869 21.4827 124.082 22.208ZM109.81 30.56C109.81 31.584 110.642 32.096 112.306 32.096C113.223 32.096 114.407 31.7547 115.858 31.072C117.33 30.4107 118.621 29.472 119.73 28.256C120.861 27.0613 121.426 25.8347 121.426 24.576C121.426 24.4267 121.394 24.2027 121.33 23.904C118.407 24.1813 115.751 25.0027 113.362 26.368C110.994 27.7333 109.81 29.1307 109.81 30.56ZM144.965 15.552L145.861 16.384L143.941 18.72C141.679 21.5147 140.005 24.288 138.917 27.04C138.639 27.616 138.351 27.904 138.053 27.904C137.775 27.904 137.541 27.872 137.349 27.808C137.178 27.7227 136.975 27.4453 136.741 26.976C136.527 26.5067 136.378 25.9413 136.293 25.28C136.207 24.6187 136.133 24.0533 136.069 23.584C136.005 23.1147 135.962 22.7733 135.941 22.56C135.919 22.3253 135.887 22.0907 135.845 21.856C135.823 21.6 135.802 21.408 135.781 21.28C135.759 21.152 135.738 21.024 135.717 20.896C135.695 20.768 135.663 20.6507 135.621 20.544C135.578 20.416 135.546 20.3093 135.525 20.224C135.503 20.1173 135.45 19.9467 135.365 19.712C135.301 19.4773 135.247 19.2747 135.205 19.104C134.095 20.2987 133.146 21.7067 132.357 23.328C132.058 23.9467 131.471 25.184 130.597 27.04C130.405 27.4453 130.138 27.648 129.797 27.648C129.477 27.648 129.21 27.616 128.997 27.552C128.805 27.4667 128.602 27.2107 128.389 26.784C128.175 26.3573 128.015 25.7173 127.909 24.864C127.397 20.576 126.906 17.6533 126.437 16.096C127.055 15.9253 127.674 15.84 128.293 15.84C128.399 16.032 128.538 16.6187 128.709 17.6C129.071 19.4987 129.53 21.728 130.085 24.288C131.13 22.2827 132.282 20.4373 133.541 18.752C134.821 17.0453 135.663 16.192 136.069 16.192C136.538 16.192 136.858 16.5227 137.029 17.184C137.221 17.824 137.381 18.912 137.509 20.448C137.658 21.9627 137.85 23.232 138.085 24.256C140.09 20.8213 142.383 17.92 144.965 15.552ZM159.611 24.768L160.347 25.312C160.048 25.952 159.493 26.56 158.683 27.136C157.893 27.712 157.168 28 156.507 28C155.248 28 154.619 27.3387 154.619 26.016C154.619 25.3973 154.779 24.6613 155.099 23.808L153.915 25.024C152.763 26.1973 151.76 26.9867 150.907 27.392C150.075 27.7973 149.253 28 148.443 28C147.632 28 147.013 27.776 146.587 27.328C146.181 26.8587 145.979 26.2187 145.979 25.408C145.979 23.9147 146.555 22.4427 147.707 20.992C148.859 19.52 150.331 18.3253 152.123 17.408C153.915 16.4907 155.707 16.0213 157.499 16L157.563 17.056L156.219 17.344C154.277 17.7707 152.56 18.624 151.067 19.904C149.595 21.184 148.859 22.464 148.859 23.744C148.859 25.0027 149.371 25.632 150.395 25.632C151.355 25.632 152.539 24.96 153.947 23.616C155.355 22.272 156.528 20.6933 157.467 18.88L158.811 19.68C157.488 22.3467 156.827 24.0427 156.827 24.768C156.827 25.0667 156.923 25.3227 157.115 25.536C157.328 25.728 157.531 25.824 157.723 25.824C157.936 25.824 158.075 25.8133 158.139 25.792C158.203 25.7707 158.267 25.7493 158.331 25.728C158.395 25.6853 158.469 25.632 158.555 25.568C158.661 25.504 158.747 25.44 158.811 25.376C158.896 25.312 159.024 25.216 159.195 25.088C159.365 24.96 159.504 24.8533 159.611 24.768ZM182.547 23.84L183.219 24.48C182.003 26.656 180.605 27.744 179.027 27.744C178.387 27.744 177.885 27.5733 177.523 27.232C177.181 26.8693 177.01 26.4 177.01 25.824C177.01 25.2267 177.363 24.2133 178.067 22.784C178.771 21.3547 179.144 20.2667 179.187 19.52C179.208 19.1787 179.101 18.9013 178.867 18.688C178.653 18.4747 178.355 18.368 177.971 18.368C177.587 18.368 177.192 18.464 176.787 18.656C176.403 18.8267 176.019 19.1147 175.635 19.52C175.272 19.9253 174.931 20.32 174.611 20.704C174.312 21.088 173.971 21.632 173.587 22.336C173.224 23.04 172.915 23.6267 172.659 24.096C172.211 24.9707 171.571 26.2827 170.739 28.032L168.819 27.36C168.819 27.296 169.171 26.0907 169.875 23.744C170.579 21.3973 170.931 20 170.931 19.552C170.931 19.104 170.824 18.784 170.611 18.592C170.397 18.3787 170.131 18.272 169.811 18.272C168.851 18.272 167.517 19.4667 165.811 21.856C164.125 24.2453 163.048 26.2827 162.579 27.968L160.755 27.36C160.861 26.2293 161.363 24.2027 162.259 21.28C163.155 18.336 163.912 16.3307 164.531 15.264L165.971 15.776C165.309 17.248 164.851 18.496 164.595 19.52C164.339 20.5227 164.115 21.6 163.923 22.752C165.757 20.128 167.293 18.2933 168.531 17.248C169.768 16.1813 170.888 15.648 171.891 15.648C172.979 15.648 173.523 16.192 173.523 17.28C173.523 17.7067 173.331 18.5493 172.947 19.808C172.584 21.0667 172.296 22.0587 172.083 22.784C175.027 18.048 177.661 15.68 179.987 15.68C180.563 15.68 181.021 15.8613 181.363 16.224C181.704 16.5653 181.875 17.088 181.875 17.792C181.875 18.4747 181.469 19.616 180.659 21.216C179.869 22.816 179.475 23.8293 179.475 24.256C179.475 24.6613 179.56 24.96 179.731 25.152C179.901 25.344 180.115 25.44 180.371 25.44C180.925 25.44 181.651 24.9067 182.547 23.84ZM190.504 14.432C189.31 14.432 188.712 13.952 188.712 12.992C188.712 12.4587 188.862 12.0107 189.16 11.648C189.459 11.2853 189.843 11.104 190.312 11.104C190.782 11.104 191.166 11.2427 191.464 11.52C191.763 11.7973 191.912 12.16 191.912 12.608C191.912 13.056 191.784 13.472 191.528 13.856C191.272 14.24 190.931 14.432 190.504 14.432ZM190.088 23.872L190.728 24.416C190.216 25.3973 189.534 26.24 188.68 26.944C187.848 27.6267 187.091 27.968 186.408 27.968C185.214 27.968 184.616 27.136 184.616 25.472C184.616 23.4027 185.47 20.704 187.176 17.376C187.56 16.6507 187.784 16.224 187.848 16.096L189.224 16.928C188.776 17.7387 188.222 19.0293 187.56 20.8C186.92 22.5707 186.6 23.712 186.6 24.224C186.6 24.7147 186.707 25.0667 186.92 25.28C187.134 25.4933 187.39 25.6 187.688 25.6C188.264 25.6 189.064 25.024 190.088 23.872Z" fill="#140704"/>
<path d="M17.568 8.416L17.9825 8.13643L17.7235 7.75228L17.3207 7.98142L17.568 8.416ZM18.496 9.792L18.7715 10.2093L19.1929 9.93107L18.9105 9.51243L18.496 9.792ZM11.392 16.736L11.7817 17.0493L11.7827 17.048L11.392 16.736ZM5.44 26.528L5.90029 26.7233L5.90032 26.7232L5.44 26.528ZM4.64 27.936L4.28645 27.5824L4.27803 27.5909L4.27003 27.5997L4.64 27.936ZM2.56 27.872L2.21884 28.2375L2.23139 28.2492L2.2447 28.2601L2.56 27.872ZM2.304 23.2L1.80658 23.149L1.80605 23.1547L2.304 23.2ZM0.96 8.064L0.827883 7.58177L0.305342 7.72493L0.489905 8.23432L0.96 8.064ZM3.296 7.424L3.72931 7.17452L3.53652 6.83968L3.16388 6.94177L3.296 7.424ZM5.024 23.136L4.5249 23.1061L5.47338 23.3552L5.024 23.136ZM17.1535 8.69557L18.0815 10.0716L18.9105 9.51243L17.9825 8.13643L17.1535 8.69557ZM18.2205 9.37473C15.9625 10.8655 13.5569 13.2242 11.0013 16.424L11.7827 17.048C14.3045 13.8905 16.6348 11.6199 18.7715 10.2093L18.2205 9.37473ZM11.0023 16.4227C8.43783 19.6122 6.42881 22.9154 4.97968 26.3328L5.90032 26.7232C7.30986 23.3992 9.26884 20.1745 11.7817 17.0493L11.0023 16.4227ZM4.97971 26.3327C4.68182 27.0349 4.44618 27.4227 4.28645 27.5824L4.99355 28.2896C5.30315 27.98 5.60084 27.4291 5.90029 26.7233L4.97971 26.3327ZM4.27003 27.5997C4.18099 27.6976 4.01666 27.788 3.68 27.788V28.788C4.19667 28.788 4.67235 28.6437 5.00997 28.2723L4.27003 27.5997ZM3.68 27.788C3.39953 27.788 3.13562 27.6955 2.8753 27.4839L2.2447 28.2601C2.66705 28.6032 3.1498 28.788 3.68 28.788V27.788ZM2.90116 27.5065C2.71178 27.3297 2.58 27.0434 2.58 26.56H1.58C1.58 27.2286 1.76822 27.817 2.21884 28.2375L2.90116 27.5065ZM2.58 26.56C2.58 25.9886 2.6524 24.8903 2.80195 23.2453L1.80605 23.1547C1.65694 24.795 1.58 25.9367 1.58 26.56H2.58ZM2.80139 23.251C2.97202 21.5873 3.06 20.391 3.06 19.68H2.06C2.06 20.3343 1.97731 21.4847 1.80661 23.149L2.80139 23.251ZM3.06 19.68C3.06 14.8495 2.52416 10.9133 1.4301 7.89367L0.489905 8.23432C1.52917 11.1027 2.06 14.9105 2.06 19.68H3.06ZM1.09212 8.54623L3.42812 7.90623L3.16388 6.94177L0.827883 7.58177L1.09212 8.54623ZM2.86269 7.67348C4.00645 9.66001 4.62 13.3471 4.62 18.848H5.62C5.62 13.3409 5.01755 9.41199 3.72931 7.17452L2.86269 7.67348ZM4.62 18.848C4.62 20.6357 4.58804 22.0538 4.5249 23.1061L5.5231 23.1659C5.58797 22.0849 5.62 20.6443 5.62 18.848H4.62ZM5.47338 23.3552C8.85836 16.416 12.9803 11.6015 17.8153 8.85058L17.3207 7.98142C12.2571 10.8625 8.01631 15.8613 4.57462 22.9168L5.47338 23.3552ZM24.1105 24.768L24.4077 24.3659L24.0984 24.1373L23.7982 24.3776L24.1105 24.768ZM24.8465 25.312L25.2996 25.5234L25.4725 25.1529L25.1437 24.9099L24.8465 25.312ZM23.1825 27.136L22.8929 26.7284L22.8878 26.7321L23.1825 27.136ZM19.5985 23.808L20.0667 23.9836L19.2403 23.4592L19.5985 23.808ZM18.4145 25.024L18.7713 25.3743L18.7727 25.3728L18.4145 25.024ZM15.4065 27.392L15.192 26.9403L15.1875 26.9425L15.4065 27.392ZM11.0865 27.328L10.7081 27.6548L10.716 27.664L10.7244 27.6728L11.0865 27.328ZM12.2065 20.992L12.5981 21.3029L12.6003 21.3002L12.2065 20.992ZM16.6225 17.408L16.3947 16.9629L16.3947 16.9629L16.6225 17.408ZM21.9985 16L22.4976 15.9698L22.4688 15.4944L21.9925 15.5L21.9985 16ZM22.0625 17.056L22.1673 17.5449L22.5876 17.4548L22.5616 17.0258L22.0625 17.056ZM20.7185 17.344L20.6137 16.8551L20.6112 16.8557L20.7185 17.344ZM15.5665 19.904L15.2411 19.5244L15.2384 19.5267L15.5665 19.904ZM18.4465 23.616L18.7917 23.9777L18.7917 23.9777L18.4465 23.616ZM21.9665 18.88L22.2222 18.4504L21.7664 18.179L21.5225 18.6501L21.9665 18.88ZM23.3105 19.68L23.7584 19.9022L23.9642 19.4872L23.5662 19.2504L23.3105 19.68ZM21.6145 25.536L21.2429 25.8705L21.2605 25.89L21.28 25.9076L21.6145 25.536ZM22.6385 25.792L22.4804 25.3177L22.4804 25.3177L22.6385 25.792ZM22.8305 25.728L22.9886 26.2023L23.0521 26.1812L23.1079 26.144L22.8305 25.728ZM23.0545 25.568L22.7973 25.1393L22.7751 25.1525L22.7545 25.168L23.0545 25.568ZM23.3105 25.376L23.0105 24.976L22.9821 24.9973L22.9569 25.0224L23.3105 25.376ZM23.6945 25.088L23.9945 25.488L23.9945 25.488L23.6945 25.088ZM23.8133 25.1701L24.5493 25.7141L25.1437 24.9099L24.4077 24.3659L23.8133 25.1701ZM24.3934 25.1006C24.1433 25.6366 23.6603 26.1832 22.8929 26.7284L23.4721 27.5436C24.3261 26.9368 24.9524 26.2674 25.2996 25.5234L24.3934 25.1006ZM22.8878 26.7321C22.1451 27.2741 21.5221 27.5 21.0065 27.5V28.5C21.8135 28.5 22.6413 28.1499 23.4772 27.5399L22.8878 26.7321ZM21.0065 27.5C20.4607 27.5 20.1416 27.3579 19.9527 27.1593C19.7594 26.9561 19.6185 26.6063 19.6185 26.016H18.6185C18.6185 26.7484 18.7923 27.3905 19.2283 27.8487C19.6687 28.3115 20.2936 28.5 21.0065 28.5V27.5ZM19.6185 26.016C19.6185 25.4785 19.7587 24.8049 20.0667 23.9836L19.1303 23.6324C18.7983 24.5178 18.6185 25.3161 18.6185 26.016H19.6185ZM19.2403 23.4592L18.0563 24.6752L18.7727 25.3728L19.9567 24.1568L19.2403 23.4592ZM18.0577 24.6737C16.921 25.8314 15.967 26.5722 15.192 26.9404L15.621 27.8436C16.5527 27.4011 17.604 26.5632 18.7713 25.3743L18.0577 24.6737ZM15.1875 26.9425C14.414 27.3193 13.6672 27.5 12.9425 27.5V28.5C13.8391 28.5 14.735 28.2753 15.6255 27.8415L15.1875 26.9425ZM12.9425 27.5C12.2242 27.5 11.754 27.3039 11.4486 26.9832L10.7244 27.6728C11.2723 28.2481 12.0395 28.5 12.9425 28.5V27.5ZM11.4649 27.0012C11.1595 26.6475 10.9785 26.1362 10.9785 25.408H9.9785C9.9785 26.3011 10.2028 27.0698 10.7081 27.6548L11.4649 27.0012ZM10.9785 25.408C10.9785 24.0526 11.499 22.687 12.5981 21.3029L11.8149 20.6811C10.61 22.1984 9.9785 23.7768 9.9785 25.408H10.9785ZM12.6003 21.3002C13.7042 19.8896 15.1179 18.7399 16.8503 17.8531L16.3947 16.9629C14.5431 17.9107 13.0128 19.1504 11.8127 20.6838L12.6003 21.3002ZM16.8503 17.8531C18.5822 16.9665 20.2987 16.5203 22.0045 16.5L21.9925 15.5C20.1143 15.5224 18.2468 16.0148 16.3947 16.9629L16.8503 17.8531ZM21.4994 16.0302L21.5634 17.0862L22.5616 17.0258L22.4976 15.9698L21.4994 16.0302ZM21.9577 16.5671L20.6137 16.8551L20.8233 17.8329L22.1673 17.5449L21.9577 16.5671ZM20.6112 16.8557C18.5902 17.2998 16.7977 18.1901 15.2411 19.5244L15.8919 20.2836C17.3219 19.0579 18.9641 18.2415 20.8258 17.8323L20.6112 16.8557ZM15.2384 19.5267C13.7147 20.8517 12.8585 22.2574 12.8585 23.744H13.8585C13.8585 22.6706 14.4743 21.5163 15.8946 20.2813L15.2384 19.5267ZM12.8585 23.744C12.8585 24.4282 12.9956 25.0342 13.3546 25.4755C13.7297 25.9366 14.275 26.132 14.8945 26.132V25.132C14.49 25.132 14.2673 25.0127 14.1304 24.8445C13.9774 24.6565 13.8585 24.3184 13.8585 23.744H12.8585ZM14.8945 26.132C16.0635 26.132 17.3726 25.3324 18.7917 23.9777L18.1013 23.2543C16.7044 24.5876 15.6455 25.132 14.8945 25.132V26.132ZM18.7917 23.9777C20.2417 22.5937 21.4477 20.9699 22.4105 19.1099L21.5225 18.6501C20.608 20.4168 19.4673 21.9503 18.1013 23.2543L18.7917 23.9777ZM21.7108 19.3096L23.0548 20.1096L23.5662 19.2504L22.2222 18.4504L21.7108 19.3096ZM22.8626 19.4578C22.1982 20.7972 21.695 21.9027 21.3567 22.7704C21.0276 23.6143 20.8265 24.3002 20.8265 24.768H21.8265C21.8265 24.5104 21.9561 23.9857 22.2883 23.1336C22.6114 22.3053 23.1001 21.2294 23.7584 19.9022L22.8626 19.4578ZM20.8265 24.768C20.8265 25.1847 20.9646 25.5613 21.2429 25.8705L21.9861 25.2015C21.8804 25.084 21.8265 24.9487 21.8265 24.768H20.8265ZM21.28 25.9076C21.5409 26.1424 21.8582 26.324 22.2225 26.324V25.324C22.2028 25.324 22.1148 25.3136 21.949 25.1644L21.28 25.9076ZM22.2225 26.324C22.336 26.324 22.4379 26.3212 22.5248 26.3145C22.6014 26.3086 22.7034 26.2974 22.7966 26.2663L22.4804 25.3177C22.5002 25.311 22.5091 25.3104 22.4985 25.3121C22.49 25.3135 22.4739 25.3155 22.4482 25.3175C22.3964 25.3215 22.3223 25.324 22.2225 25.324V26.324ZM22.7966 26.2663C22.8606 26.245 22.9246 26.2237 22.9886 26.2023L22.6724 25.2537C22.6084 25.275 22.5444 25.2963 22.4804 25.3177L22.7966 26.2663ZM23.1079 26.144C23.1818 26.0947 23.2644 26.0356 23.3545 25.968L22.7545 25.168C22.674 25.2284 22.6072 25.276 22.5531 25.312L23.1079 26.144ZM23.3117 25.9967C23.4414 25.9189 23.5627 25.831 23.6641 25.7296L22.9569 25.0224C22.9303 25.049 22.8809 25.0891 22.7973 25.1393L23.3117 25.9967ZM23.6105 25.776C23.6958 25.712 23.8238 25.616 23.9945 25.488L23.3945 24.688C23.2238 24.816 23.0958 24.912 23.0105 24.976L23.6105 25.776ZM23.9945 25.488C24.1673 25.3584 24.3105 25.2483 24.4228 25.1584L23.7982 24.3776C23.6971 24.4584 23.563 24.5616 23.3945 24.688L23.9945 25.488ZM35.6545 17.216L36.0186 16.8733L36.0186 16.8733L35.6545 17.216ZM34.1825 22.272L33.8721 22.664L34.2155 22.9359L34.5302 22.6313L34.1825 22.272ZM33.4145 21.664L32.9588 21.4582L32.7982 21.8138L33.1041 22.056L33.4145 21.664ZM31.0785 20.576L30.6709 20.2864L31.0785 20.576ZM29.0305 24.352L28.5767 24.1421L28.5755 24.1447L29.0305 24.352ZM27.2705 27.936L27.0697 28.3939L27.4802 28.5739L27.7038 28.1855L27.2705 27.936ZM25.4465 27.136L24.9888 26.9346L24.7872 27.3928L25.2457 27.5939L25.4465 27.136ZM27.4625 22.432L27.9325 22.6029L27.935 22.5956L27.4625 22.432ZM28.3265 16.096L28.1971 15.613L27.8265 15.7123V16.096H28.3265ZM30.1185 15.616L30.618 15.6391L30.6495 14.9561L29.9891 15.133L30.1185 15.616ZM29.8305 18.848L30.3233 18.9325L30.3237 18.9302L29.8305 18.848ZM28.9025 22.528L28.422 22.3898L29.3403 22.7696L28.9025 22.528ZM34.3425 17.172C34.7489 17.172 35.0508 17.3041 35.2904 17.5587L36.0186 16.8733C35.5755 16.4026 35.0028 16.172 34.3425 16.172V17.172ZM35.2904 17.5587C35.5308 17.8141 35.6665 18.154 35.6665 18.624H36.6665C36.6665 17.942 36.4609 17.3432 36.0186 16.8733L35.2904 17.5587ZM35.6665 18.624C35.6665 19.5783 35.1164 20.6724 33.8348 21.9127L34.5302 22.6313C35.8939 21.3116 36.6665 19.9737 36.6665 18.624H35.6665ZM34.4929 21.88L33.7249 21.272L33.1041 22.056L33.8721 22.664L34.4929 21.88ZM33.8702 21.8698C34.1677 21.2109 34.3625 20.6419 34.3625 20.224H33.3625C33.3625 20.4034 33.2586 20.7944 32.9588 21.4582L33.8702 21.8698ZM34.3625 20.224C34.3625 19.8445 34.2547 19.4723 33.957 19.2044C33.6693 18.9454 33.2873 18.86 32.9025 18.86V19.86C33.1577 19.86 33.2557 19.9186 33.288 19.9476C33.3103 19.9677 33.3625 20.0275 33.3625 20.224H34.3625ZM32.9025 18.86C32.0261 18.86 31.2871 19.4191 30.6709 20.2864L31.4861 20.8656C32.0219 20.1115 32.4989 19.86 32.9025 19.86V18.86ZM30.6709 20.2864C30.0677 21.1353 29.3697 22.4275 28.5767 24.1421L29.4843 24.5619C30.27 22.8632 30.9373 21.638 31.4861 20.8656L30.6709 20.2864ZM28.5755 24.1447C27.8079 25.8291 27.2297 27.0048 26.8372 27.6865L27.7038 28.1855C28.122 27.4592 28.7171 26.2456 29.4855 24.5593L28.5755 24.1447ZM27.4713 27.4781L25.6473 26.6781L25.2457 27.5939L27.0697 28.3939L27.4713 27.4781ZM25.9042 27.3374C27.0734 24.6799 27.7546 23.0919 27.9324 22.6029L26.9926 22.2611C26.8291 22.7107 26.1662 24.2588 24.9888 26.9346L25.9042 27.3374ZM27.935 22.5956C28.5354 20.8609 28.8265 18.6887 28.8265 16.096H27.8265C27.8265 18.6233 27.5416 20.6751 26.99 22.2684L27.935 22.5956ZM28.4559 16.579L30.2479 16.099L29.9891 15.133L28.1971 15.613L28.4559 16.579ZM29.619 15.5929C29.5554 16.9725 29.4605 18.0269 29.3373 18.7658L30.3237 18.9302C30.4565 18.1331 30.5536 17.0328 30.618 15.6391L29.619 15.5929ZM29.3377 18.7635C29.2148 19.4804 28.9125 20.6838 28.422 22.3898L29.383 22.6662C29.8739 20.9589 30.1902 19.7089 30.3233 18.9325L29.3377 18.7635ZM29.3403 22.7696C30.4092 20.8328 31.3783 19.4091 32.2448 18.4763C33.1275 17.5262 33.8232 17.172 34.3425 17.172V16.172C33.3898 16.172 32.4429 16.7938 31.5122 17.7957C30.5654 18.8149 29.5505 20.3192 28.4647 22.2864L29.3403 22.7696ZM47.2215 15.488L47.7087 15.6004L47.8033 15.1905L47.4155 15.0272L47.2215 15.488ZM46.9335 16.736L46.8751 17.2326L47.32 17.2849L47.4207 16.8484L46.9335 16.736ZM43.6055 21.408L43.1745 21.6615L43.1773 21.6662L43.6055 21.408ZM43.7335 27.04L44.0536 27.4241L44.0546 27.4233L43.7335 27.04ZM36.3095 25.024L36.0199 24.6164L35.6571 24.8742L35.8711 25.2644L36.3095 25.024ZM37.5255 24.16L37.8344 23.7668L37.5405 23.5359L37.2359 23.7524L37.5255 24.16ZM38.4855 25.024L38.1319 25.3776L38.1376 25.3833L38.1435 25.3888L38.4855 25.024ZM39.2535 25.696L39.5869 25.3234L39.5708 25.309L39.5535 25.296L39.2535 25.696ZM41.8775 25.728L42.2202 26.0921L42.2257 26.0869L42.2311 26.0816L41.8775 25.728ZM41.0135 21.472L40.5927 21.7421L40.5956 21.7465L41.0135 21.472ZM40.9495 16.064L40.6863 15.6388L40.6817 15.6417L40.9495 16.064ZM46.7343 15.3756L46.4463 16.6236L47.4207 16.8484L47.7087 15.6004L46.7343 15.3756ZM46.9919 16.2394C46.6021 16.1936 46.1113 16.172 45.5255 16.172V17.172C46.0917 17.172 46.5395 17.1931 46.8751 17.2326L46.9919 16.2394ZM45.5255 16.172C44.4197 16.172 43.5033 16.3516 42.8501 16.7827C42.1605 17.2378 41.8255 17.9322 41.8255 18.784H42.8255C42.8255 18.2278 43.0238 17.8662 43.4009 17.6173C43.8144 17.3444 44.498 17.172 45.5255 17.172V16.172ZM41.8255 18.784C41.8255 18.9515 41.8792 19.1319 41.9356 19.2869C41.9973 19.4564 42.0855 19.6564 42.1961 19.8832C42.4178 20.3376 42.7453 20.9318 43.1745 21.6615L44.0365 21.1545C43.6124 20.4336 43.2999 19.865 43.0949 19.4448C42.9922 19.2342 42.9204 19.0689 42.8754 18.9451C42.8251 18.8068 42.8255 18.7658 42.8255 18.784H41.8255ZM43.1773 21.6662C43.6096 22.3832 43.9264 22.9695 44.1336 23.4294C44.3494 23.9084 44.4175 24.1895 44.4175 24.32H45.4175C45.4175 23.9599 45.2669 23.5103 45.0454 23.0186C44.8152 22.5078 44.4761 21.8835 44.0337 21.1498L43.1773 21.6662ZM44.4175 24.32C44.4175 25.3438 44.074 26.1024 43.4124 26.6567L44.0546 27.4233C44.9717 26.6549 45.4175 25.6002 45.4175 24.32H44.4175ZM43.4134 26.6559C42.7594 27.2009 41.8497 27.5 40.6295 27.5V28.5C42.012 28.5 43.1716 28.1591 44.0536 27.4241L43.4134 26.6559ZM40.6295 27.5C39.0701 27.5 37.7752 26.6568 36.7479 24.7836L35.8711 25.2644C37.0198 27.3592 38.6049 28.5 40.6295 28.5V27.5ZM36.5991 25.4316L37.8151 24.5676L37.2359 23.7524L36.0199 24.6164L36.5991 25.4316ZM37.2166 24.5532C37.4961 24.7728 37.8011 25.0467 38.1319 25.3776L38.8391 24.6704C38.4872 24.3186 38.1523 24.0166 37.8344 23.7668L37.2166 24.5532ZM38.1435 25.3888C38.4863 25.7102 38.7593 25.9504 38.9535 26.096L39.5535 25.296C39.4064 25.1856 39.1673 24.9778 38.8275 24.6592L38.1435 25.3888ZM38.9201 26.0686C39.4064 26.5037 39.9701 26.74 40.5975 26.74V25.74C40.2435 25.74 39.9113 25.6136 39.5869 25.3234L38.9201 26.0686ZM40.5975 26.74C41.2176 26.74 41.7663 26.5193 42.2202 26.0921L41.5348 25.3639C41.2634 25.6194 40.9587 25.74 40.5975 25.74V26.74ZM42.2311 26.0816C42.6873 25.6253 42.9215 25.0609 42.9215 24.416H41.9215C41.9215 24.7951 41.793 25.1054 41.5239 25.3744L42.2311 26.0816ZM42.9215 24.416C42.9215 24.0308 42.7607 23.5664 42.5206 23.0643C42.2723 22.5453 41.907 21.9217 41.4314 21.1975L40.5956 21.7465C41.0587 22.4516 41.3973 23.0334 41.6184 23.4957C41.8476 23.9749 41.9215 24.2678 41.9215 24.416H42.9215ZM41.4343 21.2019C40.9824 20.4978 40.652 19.9117 40.4362 19.44C40.2143 18.955 40.1375 18.641 40.1375 18.464H39.1375C39.1375 18.863 39.29 19.3383 39.5268 19.856C39.7697 20.387 40.1273 21.0169 40.5927 21.7421L41.4343 21.2019ZM40.1375 18.464C40.1375 17.588 40.4888 16.9482 41.2173 16.4863L40.6817 15.6417C39.6608 16.2891 39.1375 17.2494 39.1375 18.464H40.1375ZM41.2127 16.4891C42.0062 15.9979 43.0691 15.732 44.4375 15.732V14.732C42.9472 14.732 41.6848 15.0208 40.6863 15.6389L41.2127 16.4891ZM44.4375 15.732C45.1549 15.732 45.7329 15.7532 46.1757 15.7939C46.6326 15.8359 46.9003 15.8953 47.0275 15.9488L47.4155 15.0272C47.1374 14.9101 46.7384 14.8414 46.2673 14.7981C45.7821 14.7535 45.1707 14.732 44.4375 14.732V15.732ZM61.0793 24.768L61.3764 24.3659L61.0672 24.1373L60.7669 24.3776L61.0793 24.768ZM61.8153 25.312L62.2683 25.5234L62.4412 25.1529L62.1124 24.9099L61.8153 25.312ZM60.1513 27.136L59.8616 26.7284L59.8565 26.7321L60.1513 27.136ZM56.5673 23.808L57.0354 23.9836L56.209 23.4592L56.5673 23.808ZM55.3833 25.024L55.74 25.3743L55.7415 25.3728L55.3833 25.024ZM52.3753 27.392L52.1607 26.9403L52.1563 26.9425L52.3753 27.392ZM48.0553 27.328L47.6768 27.6548L47.6848 27.664L47.6932 27.6728L48.0553 27.328ZM49.1753 20.992L49.5668 21.3029L49.569 21.3002L49.1753 20.992ZM53.5913 17.408L53.3634 16.9629L53.3634 16.9629L53.5913 17.408ZM58.9673 16L59.4663 15.9698L59.4375 15.4944L58.9613 15.5L58.9673 16ZM59.0313 17.056L59.136 17.5449L59.5563 17.4548L59.5303 17.0258L59.0313 17.056ZM57.6873 17.344L57.5825 16.8551L57.5799 16.8557L57.6873 17.344ZM52.5353 19.904L52.2098 19.5244L52.2072 19.5267L52.5353 19.904ZM55.4153 23.616L55.7605 23.9777L55.7605 23.9777L55.4153 23.616ZM58.9353 18.88L59.191 18.4504L58.7351 18.179L58.4912 18.6501L58.9353 18.88ZM60.2793 19.68L60.7272 19.9022L60.933 19.4872L60.535 19.2504L60.2793 19.68ZM58.5833 25.536L58.2116 25.8705L58.2292 25.89L58.2488 25.9076L58.5833 25.536ZM59.6073 25.792L59.4491 25.3177L59.4491 25.3177L59.6073 25.792ZM59.7993 25.728L59.9574 26.2023L60.0209 26.1812L60.0766 26.144L59.7993 25.728ZM60.0233 25.568L59.766 25.1393L59.7439 25.1525L59.7233 25.168L60.0233 25.568ZM60.2793 25.376L59.9793 24.976L59.9508 24.9973L59.9257 25.0224L60.2793 25.376ZM60.6633 25.088L60.9633 25.488L60.9633 25.488L60.6633 25.088ZM60.7821 25.1701L61.5181 25.7141L62.1124 24.9099L61.3764 24.3659L60.7821 25.1701ZM61.3622 25.1006C61.112 25.6366 60.629 26.1832 59.8616 26.7284L60.4409 27.5436C61.2948 26.9368 61.9211 26.2674 62.2683 25.5234L61.3622 25.1006ZM59.8565 26.7321C59.1138 27.2741 58.4909 27.5 57.9753 27.5V28.5C58.7823 28.5 59.61 28.1499 60.446 27.5399L59.8565 26.7321ZM57.9753 27.5C57.4295 27.5 57.1104 27.3579 56.9215 27.1593C56.7281 26.9561 56.5873 26.6063 56.5873 26.016H55.5873C55.5873 26.7484 55.7611 27.3905 56.197 27.8487C56.6374 28.3115 57.2623 28.5 57.9753 28.5V27.5ZM56.5873 26.016C56.5873 25.4785 56.7274 24.8049 57.0354 23.9836L56.0991 23.6324C55.7671 24.5178 55.5873 25.3161 55.5873 26.016H56.5873ZM56.209 23.4592L55.025 24.6752L55.7415 25.3728L56.9255 24.1568L56.209 23.4592ZM55.0265 24.6737C53.8898 25.8314 52.9357 26.5722 52.1607 26.9404L52.5898 27.8436C53.5214 27.4011 54.5727 26.5632 55.74 25.3743L55.0265 24.6737ZM52.1563 26.9425C51.3828 27.3193 50.6359 27.5 49.9113 27.5V28.5C50.8079 28.5 51.7037 28.2753 52.5942 27.8415L52.1563 26.9425ZM49.9113 27.5C49.1929 27.5 48.7228 27.3039 48.4173 26.9832L47.6932 27.6728C48.241 28.2481 49.0082 28.5 49.9113 28.5V27.5ZM48.4337 27.0012C48.1282 26.6475 47.9473 26.1362 47.9473 25.408H46.9473C46.9473 26.3011 47.1716 27.0698 47.6768 27.6548L48.4337 27.0012ZM47.9473 25.408C47.9473 24.0526 48.4677 22.687 49.5668 21.3029L48.7837 20.6811C47.5788 22.1984 46.9473 23.7768 46.9473 25.408H47.9473ZM49.569 21.3002C50.6729 19.8896 52.0866 18.7399 53.8191 17.8531L53.3634 16.9629C51.5119 17.9107 49.9816 19.1504 48.7815 20.6838L49.569 21.3002ZM53.8191 17.8531C55.5509 16.9665 57.2675 16.5203 58.9732 16.5L58.9613 15.5C57.083 15.5224 55.2156 16.0148 53.3634 16.9629L53.8191 17.8531ZM58.4682 16.0302L58.5322 17.0862L59.5303 17.0258L59.4663 15.9698L58.4682 16.0302ZM58.9265 16.5671L57.5825 16.8551L57.792 17.8329L59.136 17.5449L58.9265 16.5671ZM57.5799 16.8557C55.5589 17.2998 53.7665 18.1901 52.2099 19.5244L52.8606 20.2836C54.2907 19.0579 55.9329 18.2415 57.7946 17.8323L57.5799 16.8557ZM52.2072 19.5267C50.6834 20.8517 49.8273 22.2574 49.8273 23.744H50.8273C50.8273 22.6706 51.4431 21.5163 52.8633 20.2813L52.2072 19.5267ZM49.8273 23.744C49.8273 24.4282 49.9643 25.0342 50.3234 25.4755C50.6985 25.9366 51.2438 26.132 51.8633 26.132V25.132C51.4587 25.132 51.236 25.0127 51.0991 24.8445C50.9462 24.6565 50.8273 24.3184 50.8273 23.744H49.8273ZM51.8633 26.132C53.0323 26.132 54.3413 25.3324 55.7605 23.9777L55.07 23.2543C53.6732 24.5876 52.6142 25.132 51.8633 25.132V26.132ZM55.7605 23.9777C57.2104 22.5937 58.4165 20.9699 59.3793 19.1099L58.4912 18.6501C57.5767 20.4168 56.4361 21.9503 55.07 23.2543L55.7605 23.9777ZM58.6795 19.3096L60.0235 20.1096L60.535 19.2504L59.191 18.4504L58.6795 19.3096ZM59.8313 19.4578C59.167 20.7972 58.6637 21.9027 58.3254 22.7704C57.9963 23.6143 57.7953 24.3002 57.7953 24.768H58.7953C58.7953 24.5104 58.9249 23.9857 59.2571 23.1336C59.5801 22.3053 60.0689 21.2294 60.7272 19.9022L59.8313 19.4578ZM57.7953 24.768C57.7953 25.1847 57.9334 25.5613 58.2116 25.8705L58.9549 25.2015C58.8491 25.084 58.7953 24.9487 58.7953 24.768H57.7953ZM58.2488 25.9076C58.5096 26.1424 58.8269 26.324 59.1913 26.324V25.324C59.1716 25.324 59.0835 25.3136 58.9177 25.1644L58.2488 25.9076ZM59.1913 26.324C59.3047 26.324 59.4067 26.3212 59.4936 26.3145C59.5702 26.3086 59.6721 26.2974 59.7654 26.2663L59.4491 25.3177C59.469 25.311 59.4779 25.3104 59.4673 25.3121C59.4588 25.3135 59.4426 25.3155 59.4169 25.3175C59.3651 25.3215 59.2911 25.324 59.1913 25.324V26.324ZM59.7654 26.2663C59.8294 26.245 59.8934 26.2237 59.9574 26.2023L59.6411 25.2537C59.5771 25.275 59.5131 25.2963 59.4491 25.3177L59.7654 26.2663ZM60.0766 26.144C60.1506 26.0947 60.2331 26.0356 60.3233 25.968L59.7233 25.168C59.6427 25.2284 59.5759 25.276 59.5219 25.312L60.0766 26.144ZM60.2805 25.9967C60.4102 25.9189 60.5314 25.831 60.6328 25.7296L59.9257 25.0224C59.8991 25.049 59.8497 25.0891 59.766 25.1393L60.2805 25.9967ZM60.5793 25.776C60.6646 25.712 60.7926 25.616 60.9633 25.488L60.3633 24.688C60.1926 24.816 60.0646 24.912 59.9793 24.976L60.5793 25.776ZM60.9633 25.488C61.1361 25.3584 61.2793 25.2483 61.3916 25.1584L60.7669 24.3776C60.6659 24.4584 60.5318 24.5616 60.3633 24.688L60.9633 25.488ZM75.7593 24.128L76.0623 23.7303L75.7616 23.5012L75.4593 23.728L75.7593 24.128ZM76.4313 24.64L76.8785 24.8636L77.0636 24.4932L76.7343 24.2423L76.4313 24.64ZM74.4793 27.008L74.1744 26.6117L74.1694 26.6156L74.4793 27.008ZM70.7033 27.392L71.0568 27.0384L71.0568 27.0384L70.7033 27.392ZM71.2153 22.944L70.7707 22.7152L70.7694 22.7177L71.2153 22.944ZM71.9513 18.944L71.5827 19.2819L71.5974 19.2979L71.6134 19.3126L71.9513 18.944ZM67.7913 21.056L68.2056 21.3358L68.2073 21.3333L67.7913 21.056ZM64.0793 28.192L63.9141 28.6639L64.3512 28.8169L64.5372 28.3927L64.0793 28.192ZM62.1593 27.52L61.6658 27.4392L61.598 27.8533L61.9941 27.9919L62.1593 27.52ZM63.8873 20.288L63.4116 20.1337L63.4108 20.1364L63.8873 20.288ZM65.9993 15.2L66.1504 14.7234L65.7808 14.6062L65.5753 14.935L65.9993 15.2ZM67.3113 15.616L67.7764 15.7994L67.9729 15.3012L67.4624 15.1394L67.3113 15.616ZM65.0393 23.456L64.5539 23.336L65.4709 23.7084L65.0393 23.456ZM74.4793 16.448L74.1152 16.7907L74.1203 16.7962L74.1257 16.8016L74.4793 16.448ZM74.8313 19.072L75.3057 19.2301L75.308 19.2226L74.8313 19.072ZM73.6153 21.824L73.1628 21.6111L73.1615 21.614L73.6153 21.824ZM72.9433 25.376L72.5897 25.7296L72.599 25.7389L72.6088 25.7476L72.9433 25.376ZM74.0313 25.568L74.2549 26.0152L74.2549 26.0152L74.0313 25.568ZM74.4473 25.28L74.1473 24.88L74.1342 24.8898L74.1219 24.9004L74.4473 25.28ZM74.8953 24.928L74.5752 24.5439L74.5752 24.5439L74.8953 24.928ZM75.3433 24.512L74.9897 24.1584L74.9897 24.1584L75.3433 24.512ZM75.4562 24.5257L76.1282 25.0377L76.7343 24.2423L76.0623 23.7303L75.4562 24.5257ZM75.984 24.4164C75.5485 25.2875 74.9465 26.0177 74.1744 26.6117L74.7841 27.4043C75.676 26.7183 76.3753 25.8699 76.8785 24.8636L75.984 24.4164ZM74.1694 26.6156C73.4004 27.2227 72.7725 27.468 72.2713 27.468V28.468C73.0927 28.468 73.9368 28.0733 74.7891 27.4004L74.1694 26.6156ZM72.2713 27.468C71.7118 27.468 71.3273 27.309 71.0568 27.0384L70.3497 27.7456C70.8472 28.243 71.5081 28.468 72.2713 28.468V27.468ZM71.0568 27.0384C70.7727 26.7543 70.6273 26.4043 70.6273 25.952H69.6273C69.6273 26.6517 69.8658 27.2617 70.3497 27.7456L71.0568 27.0384ZM70.6273 25.952C70.6273 25.7521 70.694 25.4231 70.8694 24.9381C71.0413 24.4629 71.3036 23.8748 71.6611 23.1703L70.7694 22.7177C70.4016 23.4425 70.1199 24.0704 69.9291 24.5979C69.7418 25.1156 69.6273 25.5759 69.6273 25.952H70.6273ZM71.6598 23.1728C72.0395 22.4351 72.3303 21.7836 72.5272 21.2212C72.7219 20.6648 72.8353 20.1664 72.8353 19.744H71.8353C71.8353 20.0042 71.7619 20.3805 71.5833 20.8908C71.4068 21.3951 71.1376 22.0022 70.7707 22.7152L71.6598 23.1728ZM72.8353 19.744C72.8353 19.282 72.63 18.8879 72.2891 18.5754L71.6134 19.3126C71.7845 19.4694 71.8353 19.6087 71.8353 19.744H72.8353ZM72.3198 18.6061C71.9923 18.2489 71.5715 18.06 71.0873 18.06V19.06C71.2857 19.06 71.4408 19.1271 71.5827 19.2819L72.3198 18.6061ZM71.0873 18.06C69.7314 18.06 68.5022 19.0882 67.3752 20.7786L68.2073 21.3333C69.299 19.6958 70.2671 19.06 71.0873 19.06V18.06ZM67.3769 20.7762C66.2429 22.4553 64.9915 24.8655 63.6213 27.9913L64.5372 28.3927C65.8977 25.2891 67.1209 22.942 68.2056 21.3358L67.3769 20.7762ZM64.2444 27.7201L62.3244 27.0481L61.9941 27.9919L63.9141 28.6639L64.2444 27.7201ZM62.6527 27.6008C63.0542 25.1497 63.6245 22.7627 64.3637 20.4396L63.4108 20.1364C62.6566 22.5066 62.075 24.941 61.6658 27.4392L62.6527 27.6008ZM64.3629 20.4423C65.1286 18.0812 65.8175 16.4342 66.4232 15.465L65.5753 14.935C64.901 16.0137 64.1819 17.7588 63.4116 20.1337L64.3629 20.4423ZM65.8481 15.6766L67.1601 16.0926L67.4624 15.1394L66.1504 14.7234L65.8481 15.6766ZM66.8461 15.4326C66.2354 16.9813 65.4713 19.6234 64.5539 23.336L65.5246 23.576C66.4418 19.8646 67.1925 17.2801 67.7764 15.7994L66.8461 15.4326ZM65.4709 23.7084C66.9307 21.2119 68.3152 19.3702 69.6196 18.1583C70.9265 16.944 72.1063 16.404 73.1673 16.404V15.404C71.7536 15.404 70.3413 16.1227 68.9389 17.4257C67.5339 18.7311 66.0918 20.6654 64.6076 23.2036L65.4709 23.7084ZM73.1673 16.404C73.5736 16.404 73.8755 16.5361 74.1152 16.7907L74.8434 16.1053C74.4003 15.6346 73.8275 15.404 73.1673 15.404V16.404ZM74.1257 16.8016C74.3993 17.0752 74.5233 17.3765 74.5233 17.728H75.5233C75.5233 17.0982 75.2845 16.5461 74.8328 16.0944L74.1257 16.8016ZM74.5233 17.728C74.5233 18.1753 74.4649 18.5717 74.3545 18.9214L75.308 19.2226C75.4536 18.7617 75.5233 18.262 75.5233 17.728H74.5233ZM74.3569 18.9139C74.2404 19.2635 73.8501 20.1506 73.1628 21.6111L74.0677 22.0369C74.7457 20.5961 75.1661 19.6485 75.3056 19.2301L74.3569 18.9139ZM73.1615 21.614C72.8283 22.3341 72.5741 22.929 72.4022 23.3949C72.2394 23.836 72.1233 24.2295 72.1233 24.512H73.1233C73.1233 24.4318 73.1725 24.196 73.3403 23.7411C73.4991 23.311 73.7409 22.7432 74.069 22.034L73.1615 21.614ZM72.1233 24.512C72.1233 24.9786 72.2641 25.404 72.5897 25.7296L73.2968 25.0224C73.1957 24.9214 73.1233 24.7707 73.1233 24.512H72.1233ZM72.6088 25.7476C72.8696 25.9824 73.1869 26.164 73.5513 26.164V25.164C73.5316 25.164 73.4435 25.1536 73.2777 25.0044L72.6088 25.7476ZM73.5513 26.164C73.7956 26.164 74.0379 26.1237 74.2549 26.0152L73.8076 25.1208C73.7686 25.1403 73.6909 25.164 73.5513 25.164V26.164ZM74.2549 26.0152C74.4302 25.9276 74.603 25.8051 74.7726 25.6596L74.1219 24.9004C73.9929 25.0109 73.8883 25.0804 73.8076 25.1208L74.2549 26.0152ZM74.7473 25.68C74.923 25.5482 75.0793 25.4255 75.2153 25.3121L74.5752 24.5439C74.4552 24.6438 74.3129 24.7558 74.1473 24.88L74.7473 25.68ZM75.2153 25.3121C75.3588 25.1925 75.5197 25.0426 75.6968 24.8656L74.9897 24.1584C74.8254 24.3227 74.6877 24.4501 74.5752 24.5439L75.2153 25.3121ZM75.6968 24.8656C75.8899 24.6725 76.0058 24.5681 76.0593 24.528L75.4593 23.728C75.342 23.8159 75.1806 23.9675 74.9897 24.1584L75.6968 24.8656ZM90.923 24.768L91.2202 24.3659L90.9109 24.1373L90.6107 24.3776L90.923 24.768ZM91.659 25.312L92.1121 25.5234L92.285 25.1529L91.9562 24.9099L91.659 25.312ZM89.995 27.136L89.7054 26.7284L89.7003 26.7321L89.995 27.136ZM86.411 23.808L86.8792 23.9836L86.0528 23.4592L86.411 23.808ZM85.227 25.024L85.5838 25.3743L85.5852 25.3728L85.227 25.024ZM82.219 27.392L82.0045 26.9403L82 26.9425L82.219 27.392ZM77.899 27.328L77.5206 27.6548L77.5285 27.664L77.5369 27.6728L77.899 27.328ZM79.019 20.992L79.4106 21.3029L79.4128 21.3002L79.019 20.992ZM83.435 17.408L83.2072 16.9629L83.2072 16.9629L83.435 17.408ZM88.811 16L89.3101 15.9698L89.2813 15.4944L88.805 15.5L88.811 16ZM88.875 17.056L88.9798 17.5449L89.4001 17.4548L89.3741 17.0258L88.875 17.056ZM87.531 17.344L87.4262 16.8551L87.4237 16.8557L87.531 17.344ZM82.379 19.904L82.0536 19.5244L82.0509 19.5267L82.379 19.904ZM85.259 23.616L85.6042 23.9777L85.6042 23.9777L85.259 23.616ZM88.779 18.88L89.0347 18.4504L88.5789 18.179L88.335 18.6501L88.779 18.88ZM90.123 19.68L90.5709 19.9022L90.7767 19.4872L90.3787 19.2504L90.123 19.68ZM88.427 25.536L88.0554 25.8705L88.073 25.89L88.0925 25.9076L88.427 25.536ZM89.451 25.792L89.2929 25.3177L89.2929 25.3177L89.451 25.792ZM89.643 25.728L89.8011 26.2023L89.8646 26.1812L89.9204 26.144L89.643 25.728ZM89.867 25.568L89.6098 25.1393L89.5876 25.1525L89.567 25.168L89.867 25.568ZM90.123 25.376L89.823 24.976L89.7946 24.9973L89.7694 25.0224L90.123 25.376ZM90.507 25.088L90.807 25.488L90.807 25.488L90.507 25.088ZM90.6258 25.1701L91.3618 25.7141L91.9562 24.9099L91.2202 24.3659L90.6258 25.1701ZM91.2059 25.1006C90.9558 25.6366 90.4728 26.1832 89.7054 26.7284L90.2846 27.5436C91.1386 26.9368 91.7649 26.2674 92.1121 25.5234L91.2059 25.1006ZM89.7003 26.7321C88.9576 27.2741 88.3346 27.5 87.819 27.5V28.5C88.626 28.5 89.4538 28.1499 90.2897 27.5399L89.7003 26.7321ZM87.819 27.5C87.2732 27.5 86.9541 27.3579 86.7652 27.1593C86.5719 26.9561 86.431 26.6063 86.431 26.016H85.431C85.431 26.7484 85.6048 27.3905 86.0408 27.8487C86.4812 28.3115 87.1061 28.5 87.819 28.5V27.5ZM86.431 26.016C86.431 25.4785 86.5712 24.8049 86.8792 23.9836L85.9428 23.6324C85.6108 24.5178 85.431 25.3161 85.431 26.016H86.431ZM86.0528 23.4592L84.8688 24.6752L85.5852 25.3728L86.7692 24.1568L86.0528 23.4592ZM84.8702 24.6737C83.7335 25.8314 82.7795 26.5722 82.0045 26.9404L82.4335 27.8436C83.3652 27.4011 84.4165 26.5632 85.5838 25.3743L84.8702 24.6737ZM82 26.9425C81.2265 27.3193 80.4797 27.5 79.755 27.5V28.5C80.6516 28.5 81.5475 28.2753 82.438 27.8415L82 26.9425ZM79.755 27.5C79.0367 27.5 78.5665 27.3039 78.2611 26.9832L77.5369 27.6728C78.0848 28.2481 78.852 28.5 79.755 28.5V27.5ZM78.2774 27.0012C77.972 26.6475 77.791 26.1362 77.791 25.408H76.791C76.791 26.3011 77.0153 27.0698 77.5206 27.6548L78.2774 27.0012ZM77.791 25.408C77.791 24.0526 78.3115 22.687 79.4106 21.3029L78.6274 20.6811C77.4225 22.1984 76.791 23.7768 76.791 25.408H77.791ZM79.4128 21.3002C80.5167 19.8896 81.9304 18.7399 83.6628 17.8531L83.2072 16.9629C81.3556 17.9107 79.8253 19.1504 78.6252 20.6838L79.4128 21.3002ZM83.6628 17.8531C85.3947 16.9665 87.1112 16.5203 88.817 16.5L88.805 15.5C86.9268 15.5224 85.0593 16.0148 83.2072 16.9629L83.6628 17.8531ZM88.3119 16.0302L88.3759 17.0862L89.3741 17.0258L89.3101 15.9698L88.3119 16.0302ZM88.7702 16.5671L87.4262 16.8551L87.6358 17.8329L88.9798 17.5449L88.7702 16.5671ZM87.4237 16.8557C85.4027 17.2998 83.6102 18.1901 82.0536 19.5244L82.7044 20.2836C84.1344 19.0579 85.7766 18.2415 87.6383 17.8323L87.4237 16.8557ZM82.0509 19.5267C80.5272 20.8517 79.671 22.2574 79.671 23.744H80.671C80.671 22.6706 81.2868 21.5163 82.7071 20.2813L82.0509 19.5267ZM79.671 23.744C79.671 24.4282 79.8081 25.0342 80.1671 25.4755C80.5422 25.9366 81.0875 26.132 81.707 26.132V25.132C81.3025 25.132 81.0798 25.0127 80.9429 24.8445C80.7899 24.6565 80.671 24.3184 80.671 23.744H79.671ZM81.707 26.132C82.876 26.132 84.1851 25.3324 85.6042 23.9777L84.9138 23.2543C83.5169 24.5876 82.458 25.132 81.707 25.132V26.132ZM85.6042 23.9777C87.0542 22.5937 88.2602 20.9699 89.223 19.1099L88.335 18.6501C87.4205 20.4168 86.2798 21.9503 84.9138 23.2543L85.6042 23.9777ZM88.5233 19.3096L89.8673 20.1096L90.3787 19.2504L89.0347 18.4504L88.5233 19.3096ZM89.6751 19.4578C89.0107 20.7972 88.5075 21.9027 88.1692 22.7704C87.8401 23.6143 87.639 24.3002 87.639 24.768H88.639C88.639 24.5104 88.7686 23.9857 89.1008 23.1336C89.4239 22.3053 89.9126 21.2294 90.5709 19.9022L89.6751 19.4578ZM87.639 24.768C87.639 25.1847 87.7771 25.5613 88.0554 25.8705L88.7986 25.2015C88.6929 25.084 88.639 24.9487 88.639 24.768H87.639ZM88.0925 25.9076C88.3534 26.1424 88.6707 26.324 89.035 26.324V25.324C89.0153 25.324 88.9273 25.3136 88.7615 25.1644L88.0925 25.9076ZM89.035 26.324C89.1485 26.324 89.2504 26.3212 89.3373 26.3145C89.4139 26.3086 89.5159 26.2974 89.6091 26.2663L89.2929 25.3177C89.3127 25.311 89.3216 25.3104 89.311 25.3121C89.3025 25.3135 89.2864 25.3155 89.2607 25.3175C89.2089 25.3215 89.1348 25.324 89.035 25.324V26.324ZM89.6091 26.2663C89.6731 26.245 89.7371 26.2237 89.8011 26.2023L89.4849 25.2537C89.4209 25.275 89.3569 25.2963 89.2929 25.3177L89.6091 26.2663ZM89.9204 26.144C89.9943 26.0947 90.0769 26.0356 90.167 25.968L89.567 25.168C89.4865 25.2284 89.4197 25.276 89.3656 25.312L89.9204 26.144ZM90.1242 25.9967C90.2539 25.9189 90.3752 25.831 90.4766 25.7296L89.7694 25.0224C89.7428 25.049 89.6934 25.0891 89.6098 25.1393L90.1242 25.9967ZM90.423 25.776C90.5083 25.712 90.6363 25.616 90.807 25.488L90.207 24.688C90.0363 24.816 89.9083 24.912 89.823 24.976L90.423 25.776ZM90.807 25.488C90.9798 25.3584 91.123 25.2483 91.2353 25.1584L90.6107 24.3776C90.5096 24.4584 90.3755 24.5616 90.207 24.688L90.807 25.488ZM124.082 22.208L123.602 22.3491L123.709 22.7133L124.089 22.708L124.082 22.208ZM126.354 22.176H126.854V21.6689L126.347 21.676L126.354 22.176ZM126.354 23.488L126.272 23.9812L126.854 24.0782V23.488H126.354ZM124.306 23.488L124.256 22.9905L123.806 23.0355V23.488H124.306ZM121.938 28.48L121.573 28.1382L121.573 28.1382L121.938 28.48ZM116.21 32.576L115.999 32.1229L115.993 32.1254L116.21 32.576ZM107.538 33.408L107.219 33.7933L107.226 33.7984L107.538 33.408ZM109.074 27.52L109.391 27.907L109.391 27.907L109.074 27.52ZM114.834 24.192L115.019 24.6565L115.019 24.6565L114.834 24.192ZM120.786 22.656L120.828 23.1542L121.672 23.0831L121.202 22.3786L120.786 22.656ZM119.794 21.824L119.562 22.2669L119.562 22.2669L119.794 21.824ZM117.042 20.736L116.869 21.2051L116.875 21.2074L117.042 20.736ZM114.098 19.072L113.732 19.4128L113.738 19.4191L114.098 19.072ZM115.026 12.672L114.642 12.3513L114.642 12.3513L115.026 12.672ZM119.25 9.088L119.505 9.51824L119.506 9.51724L119.25 9.088ZM124.946 8.224L124.573 8.55752L124.582 8.56731L124.946 8.224ZM123.794 13.216L124.184 13.5291L124.186 13.5262L123.794 13.216ZM120.018 16.448L119.61 16.7363L119.865 17.0983L120.255 16.8882L120.018 16.448ZM119.25 15.36L119.022 14.9151L118.509 15.1779L118.842 15.6483L119.25 15.36ZM121.426 13.376L121.016 13.0899L121.015 13.0919L121.426 13.376ZM117.874 11.904L118.222 12.2635L118.222 12.2634L117.874 11.904ZM119.442 18.752L119.252 19.2145L119.257 19.2167L119.442 18.752ZM122.77 20.416L122.472 20.8176L122.481 20.8238L122.77 20.416ZM115.858 31.072L115.653 30.6158L115.645 30.6196L115.858 31.072ZM119.73 28.256L119.367 27.9122L119.361 27.919L119.73 28.256ZM121.33 23.904L121.819 23.7992L121.726 23.3642L121.283 23.4062L121.33 23.904ZM113.362 26.368L113.114 25.9339L113.112 25.9348L113.362 26.368ZM124.089 22.708L126.361 22.676L126.347 21.676L124.075 21.708L124.089 22.708ZM125.854 22.176V23.488H126.854V22.176H125.854ZM126.436 22.9948C126.146 22.9465 125.819 22.924 125.458 22.924V23.924C125.78 23.924 126.05 23.9442 126.272 23.9812L126.436 22.9948ZM125.458 22.924C125.096 22.924 124.695 22.9466 124.256 22.9905L124.356 23.9855C124.77 23.9441 125.137 23.924 125.458 23.924V22.924ZM123.806 23.488C123.806 24.96 123.1 26.5078 121.573 28.1382L122.303 28.8218C123.933 27.0816 124.806 25.3013 124.806 23.488H123.806ZM121.573 28.1382C120.041 29.7738 118.185 31.1026 115.999 32.1229L116.421 33.0291C118.715 31.9587 120.678 30.5569 122.303 28.8218L121.573 28.1382ZM115.993 32.1254C113.824 33.1684 111.829 33.676 110.002 33.676V34.676C112.015 34.676 114.159 34.1169 116.427 33.0266L115.993 32.1254ZM110.002 33.676C109.087 33.676 108.383 33.4439 107.85 33.0176L107.226 33.7984C107.973 34.3961 108.912 34.676 110.002 34.676V33.676ZM107.857 33.0228C107.358 32.6097 107.11 32.0812 107.11 31.392H106.11C106.11 32.3668 106.481 33.1823 107.219 33.7932L107.857 33.0228ZM107.11 31.392C107.11 30.384 107.784 29.2215 109.391 27.907L108.757 27.133C107.079 28.5065 106.11 29.9253 106.11 31.392H107.11ZM109.391 27.907C110.989 26.5989 112.864 25.5144 115.019 24.6565L114.649 23.7275C112.41 24.6189 110.444 25.7531 108.757 27.133L109.391 27.907ZM115.019 24.6565C117.185 23.7945 119.12 23.2983 120.828 23.1542L120.744 22.1578C118.911 22.3123 116.878 22.8402 114.649 23.7275L115.019 24.6565ZM121.202 22.3786C120.93 21.9704 120.526 21.6428 120.026 21.3811L119.562 22.2669C119.958 22.4745 120.215 22.7016 120.37 22.9333L121.202 22.3786ZM120.026 21.3811C119.541 21.1272 118.591 20.7536 117.209 20.2646L116.875 21.2074C118.267 21.6998 119.151 22.0514 119.562 22.2669L120.026 21.3811ZM117.215 20.267C115.852 19.7637 114.955 19.2409 114.458 18.7249L113.738 19.4191C114.393 20.0978 115.458 20.6843 116.869 21.205L117.215 20.267ZM114.464 18.7313C113.998 18.2311 113.734 17.5035 113.734 16.48H112.734C112.734 17.6752 113.046 18.6756 113.732 19.4127L114.464 18.7313ZM113.734 16.48C113.734 15.5446 114.243 14.3882 115.41 12.9927L114.642 12.3513C113.419 13.8145 112.734 15.1967 112.734 16.48H113.734ZM115.41 12.9927C116.567 11.6074 117.932 10.4496 119.505 9.51824L118.995 8.65776C117.326 9.64636 115.874 10.8779 114.642 12.3513L115.41 12.9927ZM119.506 9.51724C121.11 8.559 122.459 8.116 123.57 8.116V7.116C122.206 7.116 120.675 7.65433 118.994 8.65876L119.506 9.51724ZM123.57 8.116C123.986 8.116 124.308 8.26045 124.573 8.5574L125.319 7.8906C124.859 7.37688 124.264 7.116 123.57 7.116V8.116ZM124.582 8.56731C124.849 8.84971 124.99 9.20305 124.99 9.664H125.99C125.99 8.97295 125.768 8.36629 125.31 7.88069L124.582 8.56731ZM124.99 9.664C124.99 10.4245 124.519 11.4938 123.402 12.9058L124.186 13.5262C125.33 12.0796 125.99 10.7809 125.99 9.664H124.99ZM123.404 12.9029C122.309 14.2663 121.101 15.2971 119.781 16.0078L120.255 16.8882C121.709 16.1055 123.017 14.9817 124.184 13.5291L123.404 12.9029ZM120.426 16.1597L119.658 15.0717L118.842 15.6483L119.61 16.7363L120.426 16.1597ZM119.478 15.8049C120.395 15.3348 121.18 14.6128 121.837 13.6601L121.015 13.0919C120.435 13.9312 119.769 14.5318 119.022 14.9151L119.478 15.8049ZM121.836 13.6621C122.498 12.7129 122.886 11.8207 122.886 11.008H121.886C121.886 11.518 121.634 12.2044 121.016 13.0899L121.836 13.6621ZM122.886 11.008C122.886 10.592 122.774 10.1903 122.464 9.89958C122.161 9.6144 121.752 9.516 121.33 9.516V10.516C121.612 10.516 121.731 10.5829 121.78 10.6284C121.822 10.6684 121.886 10.7627 121.886 11.008H122.886ZM121.33 9.516C120.127 9.516 118.853 10.2617 117.526 11.5446L118.222 12.2634C119.498 11.029 120.528 10.516 121.33 10.516V9.516ZM117.526 11.5445C116.208 12.8186 115.454 14.1036 115.454 15.392H116.454C116.454 14.5044 116.98 13.464 118.222 12.2635L117.526 11.5445ZM115.454 15.392C115.454 16.2241 115.669 16.9431 116.158 17.4865L116.902 16.8175C116.623 16.5075 116.454 16.0533 116.454 15.392H115.454ZM116.158 17.4865C116.408 17.7642 116.808 18.0368 117.305 18.3102C117.813 18.5893 118.464 18.8906 119.252 19.2145L119.632 18.2895C118.863 17.9734 118.25 17.6881 117.787 17.4338C117.314 17.1739 117.036 16.9665 116.902 16.8175L116.158 17.4865ZM119.257 19.2167C120.807 19.8323 121.866 20.3676 122.472 20.8175L123.068 20.0145C122.352 19.4831 121.192 18.9091 119.627 18.2873L119.257 19.2167ZM122.481 20.8238C123.057 21.2331 123.423 21.7396 123.602 22.3491L124.562 22.0669C124.314 21.2258 123.805 20.5375 123.059 20.0082L122.481 20.8238ZM109.31 30.56C109.31 31.2355 109.6 31.7856 110.172 32.1378C110.704 32.4655 111.439 32.596 112.306 32.596V31.596C111.509 31.596 110.996 31.4705 110.696 31.2862C110.436 31.1264 110.31 30.9085 110.31 30.56H109.31ZM112.306 32.596C113.333 32.596 114.596 32.2184 116.071 31.5244L115.645 30.6196C114.218 31.291 113.114 31.596 112.306 31.596V32.596ZM116.063 31.5281C117.599 30.8381 118.945 29.8585 120.099 28.593L119.361 27.919C118.296 29.0855 117.061 29.9832 115.653 30.6159L116.063 31.5281ZM120.093 28.5997C121.284 27.3416 121.926 25.9979 121.926 24.576H120.926C120.926 25.6714 120.437 26.7811 119.367 27.9123L120.093 28.5997ZM121.926 24.576C121.926 24.3713 121.884 24.1044 121.819 23.7992L120.841 24.0088C120.904 24.3009 120.926 24.4821 120.926 24.576H121.926ZM121.283 23.4062C118.294 23.6898 115.569 24.531 113.114 25.9339L113.61 26.8021C115.934 25.4743 118.52 24.6728 121.377 24.4018L121.283 23.4062ZM113.112 25.9348C110.727 27.3103 109.31 28.8361 109.31 30.56H110.31C110.31 29.4252 111.261 28.1563 113.612 26.8012L113.112 25.9348ZM144.965 15.552L145.305 15.1856L144.967 14.8716L144.627 15.1835L144.965 15.552ZM145.861 16.384L146.247 16.7015L146.546 16.3379L146.201 16.0176L145.861 16.384ZM143.941 18.72L143.554 18.4025L143.552 18.4055L143.941 18.72ZM138.917 27.04L139.367 27.2569L139.375 27.2406L139.382 27.2238L138.917 27.04ZM137.349 27.808L137.125 28.2552L137.157 28.2711L137.191 28.2823L137.349 27.808ZM136.741 26.976L136.286 27.1829L136.289 27.1913L136.294 27.1996L136.741 26.976ZM136.293 25.28L135.797 25.344L135.797 25.344L136.293 25.28ZM136.069 23.584L136.564 23.5164L136.564 23.5164L136.069 23.584ZM135.941 22.56L135.443 22.6053L135.443 22.6098L135.941 22.56ZM135.845 21.856L135.346 21.8975L135.348 21.9216L135.353 21.9454L135.845 21.856ZM135.781 21.28L135.288 21.3622L135.288 21.3622L135.781 21.28ZM135.717 20.896L135.224 20.9782L135.224 20.9782L135.717 20.896ZM135.621 20.544L135.146 20.7021L135.151 20.7161L135.157 20.7297L135.621 20.544ZM135.525 20.224L135.034 20.3221L135.037 20.3337L135.04 20.3453L135.525 20.224ZM135.365 19.712L134.882 19.8436L134.888 19.8635L134.895 19.8829L135.365 19.712ZM135.205 19.104L135.69 18.9827L135.466 18.0878L134.838 18.7638L135.205 19.104ZM132.357 23.328L131.907 23.1091L131.906 23.1106L132.357 23.328ZM130.597 27.04L131.049 27.254L131.049 27.2531L130.597 27.04ZM128.997 27.552L128.794 28.0089L128.823 28.0218L128.853 28.0309L128.997 27.552ZM128.389 26.784L128.836 26.5604L128.836 26.5604L128.389 26.784ZM127.909 24.864L127.412 24.9233L127.413 24.926L127.909 24.864ZM126.437 16.096L126.304 15.614L125.81 15.7501L125.958 16.2403L126.437 16.096ZM128.293 15.84L128.73 15.5972L128.587 15.34H128.293V15.84ZM128.709 17.6L128.216 17.6857L128.218 17.6938L128.709 17.6ZM130.085 24.288L129.596 24.3939L129.889 25.7454L130.528 24.5191L130.085 24.288ZM133.541 18.752L133.141 18.452L133.14 18.4528L133.541 18.752ZM137.029 17.184L136.545 17.3089L136.547 17.3184L136.55 17.3277L137.029 17.184ZM137.509 20.448L137.01 20.4895L137.011 20.4971L137.509 20.448ZM138.085 24.256L137.597 24.3677L137.88 25.5991L138.517 24.5081L138.085 24.256ZM144.625 15.9184L145.521 16.7504L146.201 16.0176L145.305 15.1856L144.625 15.9184ZM145.474 16.0665L143.554 18.4025L144.327 19.0375L146.247 16.7015L145.474 16.0665ZM143.552 18.4055C141.265 21.2314 139.562 24.0481 138.452 26.8562L139.382 27.2238C140.448 24.5279 142.093 21.7979 144.329 19.0345L143.552 18.4055ZM138.466 26.8231C138.34 27.0859 138.227 27.2462 138.139 27.3344C138.054 27.4196 138.027 27.404 138.053 27.404V28.404C138.377 28.404 138.643 28.2444 138.846 28.0416C139.046 27.8418 139.216 27.5701 139.367 27.2569L138.466 26.8231ZM138.053 27.404C137.811 27.404 137.633 27.3757 137.507 27.3337L137.191 28.2823C137.449 28.3683 137.74 28.404 138.053 28.404V27.404ZM137.572 27.3608C137.595 27.372 137.559 27.3591 137.472 27.241C137.394 27.1333 137.299 26.9737 137.188 26.7524L136.294 27.1996C136.418 27.4477 136.541 27.6613 136.665 27.831C136.781 27.9903 136.932 28.1587 137.125 28.2552L137.572 27.3608ZM137.196 26.7691C137.008 26.3562 136.869 25.8416 136.789 25.216L135.797 25.344C135.887 26.041 136.047 26.6572 136.286 27.1829L137.196 26.7691ZM136.789 25.216C136.703 24.5539 136.628 23.9873 136.564 23.5164L135.573 23.6516C135.637 24.1193 135.712 24.6834 135.797 25.344L136.789 25.216ZM136.564 23.5164C136.5 23.0477 136.459 22.714 136.438 22.5102L135.443 22.6098C135.466 22.8327 135.509 23.1816 135.573 23.6516L136.564 23.5164ZM136.439 22.5147C136.416 22.2651 136.382 22.0157 136.337 21.7666L135.353 21.9454C135.393 22.1657 135.423 22.3856 135.443 22.6053L136.439 22.5147ZM136.343 21.8145C136.321 21.5553 136.299 21.3467 136.274 21.1978L135.288 21.3622C135.305 21.4693 135.325 21.6447 135.346 21.8975L136.343 21.8145ZM136.274 21.1978C136.253 21.0698 136.231 20.9418 136.21 20.8138L135.224 20.9782C135.245 21.1062 135.266 21.2342 135.288 21.3622L136.274 21.1978ZM136.21 20.8138C136.183 20.6548 136.143 20.5023 136.085 20.3583L135.157 20.7297C135.184 20.799 135.207 20.8812 135.224 20.9782L136.21 20.8138ZM136.095 20.3859C136.055 20.2644 136.027 20.171 136.01 20.1027L135.04 20.3453C135.065 20.4477 135.102 20.5676 135.146 20.7021L136.095 20.3859ZM136.015 20.1259C135.986 19.9788 135.92 19.7771 135.835 19.5411L134.895 19.8829C134.98 20.1162 135.021 20.2558 135.034 20.3221L136.015 20.1259ZM135.847 19.5804C135.784 19.348 135.731 19.1489 135.69 18.9827L134.72 19.2253C134.763 19.4004 134.818 19.6067 134.882 19.8436L135.847 19.5804ZM134.838 18.7638C133.692 19.9982 132.716 21.4481 131.907 23.1091L132.806 23.5469C133.576 21.9652 134.499 20.5992 135.571 19.4442L134.838 18.7638ZM131.906 23.1106C131.607 23.7317 131.019 24.9712 130.144 26.8269L131.049 27.2531C131.924 25.3968 132.51 24.1616 132.807 23.5454L131.906 23.1106ZM130.145 26.826C130.005 27.1218 129.882 27.148 129.797 27.148V28.148C130.394 28.148 130.805 27.7689 131.049 27.254L130.145 26.826ZM129.797 27.148C129.506 27.148 129.292 27.1185 129.14 27.0731L128.853 28.0309C129.128 28.1135 129.447 28.148 129.797 28.148V27.148ZM129.2 27.0951C129.208 27.0985 129.169 27.0821 129.093 26.9856C129.02 26.8938 128.934 26.7557 128.836 26.5604L127.942 27.0076C128.057 27.239 128.179 27.4422 128.309 27.6064C128.435 27.7659 128.594 27.9201 128.794 28.0089L129.2 27.0951ZM128.836 26.5604C128.661 26.2098 128.509 25.6367 128.405 24.802L127.413 24.926C127.522 25.798 127.69 26.5048 127.942 27.0076L128.836 26.5604ZM128.405 24.8047C127.894 20.5201 127.399 17.5564 126.915 15.9517L125.958 16.2403C126.413 17.7503 126.9 20.6319 127.412 24.9233L128.405 24.8047ZM126.57 16.578C127.147 16.4188 127.721 16.34 128.293 16.34V15.34C127.627 15.34 126.964 15.4318 126.304 15.614L126.57 16.578ZM127.856 16.0828C127.855 16.0816 127.86 16.0903 127.869 16.114C127.878 16.1367 127.889 16.1676 127.902 16.2083C127.928 16.2899 127.957 16.3992 127.99 16.539C128.056 16.8184 128.132 17.1994 128.216 17.6857L129.201 17.5143C129.115 17.0193 129.036 16.6162 128.963 16.309C128.896 16.0229 128.822 15.7623 128.73 15.5972L127.856 16.0828ZM128.218 17.6938C128.581 19.5976 129.041 21.8312 129.596 24.3939L130.573 24.1821C130.019 21.6248 129.562 19.3997 129.2 17.5062L128.218 17.6938ZM130.528 24.5191C131.562 22.5358 132.7 20.7135 133.941 19.0512L133.14 18.4528C131.864 20.1612 130.698 22.0295 129.641 24.0569L130.528 24.5191ZM133.941 19.052C134.576 18.2052 135.091 17.5861 135.489 17.1833C135.688 16.9812 135.846 16.846 135.965 16.7647C136.099 16.6728 136.123 16.692 136.069 16.692V15.692C135.812 15.692 135.578 15.8179 135.401 15.9393C135.207 16.0713 134.999 16.2561 134.777 16.4807C134.332 16.9312 133.786 17.5922 133.141 18.452L133.941 19.052ZM136.069 16.692C136.171 16.692 136.238 16.7219 136.301 16.7877C136.379 16.8678 136.471 17.0244 136.545 17.3089L137.513 17.0591C137.416 16.6823 137.263 16.3428 137.02 16.0923C136.764 15.8275 136.436 15.692 136.069 15.692V16.692ZM136.55 17.3277C136.725 17.9131 136.883 18.9551 137.01 20.4895L138.007 20.4065C137.879 18.8689 137.716 17.7349 137.508 17.0403L136.55 17.3277ZM137.011 20.4971C137.162 22.0243 137.356 23.3162 137.597 24.3677L138.572 24.1443C138.344 23.1478 138.154 21.901 138.006 20.3989L137.011 20.4971ZM138.517 24.5081C140.5 21.1109 142.763 18.2504 145.303 15.9204L144.627 15.1835C142.004 17.5896 139.68 20.5317 137.653 24.0039L138.517 24.5081ZM159.611 24.768L159.908 24.3659L159.598 24.1373L159.298 24.3776L159.611 24.768ZM160.347 25.312L160.8 25.5234L160.972 25.1529L160.644 24.9099L160.347 25.312ZM158.683 27.136L158.393 26.7284L158.388 26.7321L158.683 27.136ZM155.099 23.808L155.567 23.9836L154.74 23.4592L155.099 23.808ZM153.915 25.024L154.271 25.3743L154.273 25.3728L153.915 25.024ZM150.907 27.392L150.692 26.9403L150.688 26.9425L150.907 27.392ZM146.587 27.328L146.208 27.6548L146.216 27.664L146.224 27.6728L146.587 27.328ZM147.707 20.992L148.098 21.3029L148.1 21.3002L147.707 20.992ZM152.123 17.408L151.895 16.9629L151.895 16.9629L152.123 17.408ZM157.499 16L157.998 15.9698L157.969 15.4944L157.493 15.5L157.499 16ZM157.563 17.056L157.667 17.5449L158.088 17.4548L158.062 17.0258L157.563 17.056ZM156.219 17.344L156.114 16.8551L156.111 16.8557L156.219 17.344ZM151.067 19.904L150.741 19.5244L150.738 19.5267L151.067 19.904ZM153.947 23.616L154.292 23.9777L154.292 23.9777L153.947 23.616ZM157.467 18.88L157.722 18.4504L157.266 18.179L157.022 18.6501L157.467 18.88ZM158.811 19.68L159.258 19.9022L159.464 19.4872L159.066 19.2504L158.811 19.68ZM157.115 25.536L156.743 25.8705L156.76 25.89L156.78 25.9076L157.115 25.536ZM158.139 25.792L157.98 25.3177L157.98 25.3177L158.139 25.792ZM158.331 25.728L158.489 26.2023L158.552 26.1812L158.608 26.144L158.331 25.728ZM158.555 25.568L158.297 25.1393L158.275 25.1525L158.255 25.168L158.555 25.568ZM158.811 25.376L158.511 24.976L158.482 24.9973L158.457 25.0224L158.811 25.376ZM159.195 25.088L159.495 25.488L159.495 25.488L159.195 25.088ZM159.313 25.1701L160.049 25.7141L160.644 24.9099L159.908 24.3659L159.313 25.1701ZM159.893 25.1006C159.643 25.6366 159.16 26.1832 158.393 26.7284L158.972 27.5436C159.826 26.9368 160.452 26.2674 160.8 25.5234L159.893 25.1006ZM158.388 26.7321C157.645 27.2741 157.022 27.5 156.507 27.5V28.5C157.314 28.5 158.141 28.1499 158.977 27.5399L158.388 26.7321ZM156.507 27.5C155.961 27.5 155.642 27.3579 155.453 27.1593C155.259 26.9561 155.119 26.6063 155.119 26.016H154.119C154.119 26.7484 154.292 27.3905 154.728 27.8487C155.169 28.3115 155.794 28.5 156.507 28.5V27.5ZM155.119 26.016C155.119 25.4785 155.259 24.8049 155.567 23.9836L154.63 23.6324C154.298 24.5178 154.119 25.3161 154.119 26.016H155.119ZM154.74 23.4592L153.556 24.6752L154.273 25.3728L155.457 24.1568L154.74 23.4592ZM153.558 24.6737C152.421 25.8314 151.467 26.5722 150.692 26.9404L151.121 27.8436C152.053 27.4011 153.104 26.5632 154.271 25.3743L153.558 24.6737ZM150.688 26.9425C149.914 27.3193 149.167 27.5 148.443 27.5V28.5C149.339 28.5 150.235 28.2753 151.125 27.8415L150.688 26.9425ZM148.443 27.5C147.724 27.5 147.254 27.3039 146.949 26.9832L146.224 27.6728C146.772 28.2481 147.539 28.5 148.443 28.5V27.5ZM146.965 27.0012C146.659 26.6475 146.479 26.1362 146.479 25.408H145.479C145.479 26.3011 145.703 27.0698 146.208 27.6548L146.965 27.0012ZM146.479 25.408C146.479 24.0526 146.999 22.687 148.098 21.3029L147.315 20.6811C146.11 22.1984 145.479 23.7768 145.479 25.408H146.479ZM148.1 21.3002C149.204 19.8896 150.618 18.7399 152.35 17.8531L151.895 16.9629C150.043 17.9107 148.513 19.1504 147.313 20.6838L148.1 21.3002ZM152.35 17.8531C154.082 16.9665 155.799 16.5203 157.504 16.5L157.493 15.5C155.614 15.5224 153.747 16.0148 151.895 16.9629L152.35 17.8531ZM156.999 16.0302L157.063 17.0862L158.062 17.0258L157.998 15.9698L156.999 16.0302ZM157.458 16.5671L156.114 16.8551L156.323 17.8329L157.667 17.5449L157.458 16.5671ZM156.111 16.8557C154.09 17.2998 152.298 18.1901 150.741 19.5244L151.392 20.2836C152.822 19.0579 154.464 18.2415 156.326 17.8323L156.111 16.8557ZM150.738 19.5267C149.215 20.8517 148.359 22.2574 148.359 23.744H149.359C149.359 22.6706 149.974 21.5163 151.395 20.2813L150.738 19.5267ZM148.359 23.744C148.359 24.4282 148.496 25.0342 148.855 25.4755C149.23 25.9366 149.775 26.132 150.395 26.132V25.132C149.99 25.132 149.767 25.0127 149.63 24.8445C149.477 24.6565 149.359 24.3184 149.359 23.744H148.359ZM150.395 26.132C151.564 26.132 152.873 25.3324 154.292 23.9777L153.601 23.2543C152.204 24.5876 151.145 25.132 150.395 25.132V26.132ZM154.292 23.9777C155.742 22.5937 156.948 20.9699 157.911 19.1099L157.022 18.6501C156.108 20.4168 154.967 21.9503 153.601 23.2543L154.292 23.9777ZM157.211 19.3096L158.555 20.1096L159.066 19.2504L157.722 18.4504L157.211 19.3096ZM158.363 19.4578C157.698 20.7972 157.195 21.9027 156.857 22.7704C156.528 23.6143 156.327 24.3002 156.327 24.768H157.327C157.327 24.5104 157.456 23.9857 157.788 23.1336C158.111 22.3053 158.6 21.2294 159.258 19.9022L158.363 19.4578ZM156.327 24.768C156.327 25.1847 156.465 25.5613 156.743 25.8705L157.486 25.2015C157.38 25.084 157.327 24.9487 157.327 24.768H156.327ZM156.78 25.9076C157.041 26.1424 157.358 26.324 157.723 26.324V25.324C157.703 25.324 157.615 25.3136 157.449 25.1644L156.78 25.9076ZM157.723 26.324C157.836 26.324 157.938 26.3212 158.025 26.3145C158.101 26.3086 158.203 26.2974 158.297 26.2663L157.98 25.3177C158 25.311 158.009 25.3104 157.999 25.3121C157.99 25.3135 157.974 25.3155 157.948 25.3175C157.896 25.3215 157.822 25.324 157.723 25.324V26.324ZM158.297 26.2663C158.361 26.245 158.425 26.2237 158.489 26.2023L158.172 25.2537C158.108 25.275 158.044 25.2963 157.98 25.3177L158.297 26.2663ZM158.608 26.144C158.682 26.0947 158.764 26.0356 158.855 25.968L158.255 25.168C158.174 25.2284 158.107 25.276 158.053 25.312L158.608 26.144ZM158.812 25.9967C158.941 25.9189 159.063 25.831 159.164 25.7296L158.457 25.0224C158.43 25.049 158.381 25.0891 158.297 25.1393L158.812 25.9967ZM159.111 25.776C159.196 25.712 159.324 25.616 159.495 25.488L158.895 24.688C158.724 24.816 158.596 24.912 158.511 24.976L159.111 25.776ZM159.495 25.488C159.667 25.3584 159.811 25.2483 159.923 25.1584L159.298 24.3776C159.197 24.4584 159.063 24.5616 158.895 24.688L159.495 25.488ZM182.547 23.84L182.891 23.4779L182.506 23.1109L182.164 23.5184L182.547 23.84ZM183.219 24.48L183.655 24.7239L183.844 24.3854L183.563 24.1179L183.219 24.48ZM177.523 27.232L177.158 27.5747L177.169 27.5857L177.18 27.5961L177.523 27.232ZM178.067 22.784L178.515 23.0049L178.515 23.0049L178.067 22.784ZM179.187 19.52L178.687 19.4888L178.687 19.4915L179.187 19.52ZM178.867 18.688L178.513 19.0416L178.521 19.05L178.53 19.058L178.867 18.688ZM176.787 18.656L176.99 19.113L177.001 19.1079L176.787 18.656ZM175.635 19.52L175.272 19.1761L175.267 19.1813L175.262 19.1866L175.635 19.52ZM174.611 20.704L174.226 20.3839L174.221 20.3904L174.216 20.397L174.611 20.704ZM173.587 22.336L173.147 22.0965L173.142 22.107L173.587 22.336ZM172.659 24.096L172.219 23.8565L172.213 23.8681L172.659 24.096ZM170.739 28.032L170.573 28.5039L170.997 28.6523L171.19 28.2468L170.739 28.032ZM168.819 27.36H168.319V27.7147L168.653 27.8319L168.819 27.36ZM169.875 23.744L170.353 23.8877L170.353 23.8877L169.875 23.744ZM170.611 18.592L170.257 18.9456L170.266 18.9549L170.276 18.9636L170.611 18.592ZM165.811 21.856L165.404 21.5654L165.402 21.5678L165.811 21.856ZM162.579 27.968L162.42 28.4423L162.919 28.6086L163.06 28.1021L162.579 27.968ZM160.755 27.36L160.257 27.313L160.219 27.7087L160.596 27.8343L160.755 27.36ZM162.259 21.28L162.737 21.4266L162.737 21.4256L162.259 21.28ZM164.531 15.264L164.698 14.7929L164.306 14.6537L164.098 15.0131L164.531 15.264ZM165.971 15.776L166.427 15.9809L166.649 15.4865L166.138 15.3049L165.971 15.776ZM164.595 19.52L165.079 19.6437L165.08 19.6413L164.595 19.52ZM163.923 22.752L163.429 22.6698L164.332 23.0385L163.923 22.752ZM168.531 17.248L168.853 17.63L168.857 17.6267L168.531 17.248ZM172.947 19.808L172.468 19.6621L172.466 19.6696L172.947 19.808ZM172.083 22.784L171.603 22.6429L172.507 23.048L172.083 22.784ZM181.363 16.224L180.998 16.5667L181.004 16.5722L181.009 16.5776L181.363 16.224ZM180.659 21.216L180.212 20.99L180.21 20.9948L180.659 21.216ZM179.731 25.152L179.357 25.4842L179.357 25.4842L179.731 25.152ZM182.202 24.2021L182.874 24.8421L183.563 24.1179L182.891 23.4779L182.202 24.2021ZM182.782 24.2361C181.6 26.3519 180.334 27.244 179.027 27.244V28.244C180.876 28.244 182.405 26.9601 183.655 24.7239L182.782 24.2361ZM179.027 27.244C178.476 27.244 178.111 27.0992 177.865 26.8679L177.18 27.5961C177.659 28.0475 178.297 28.244 179.027 28.244V27.244ZM177.887 26.8893C177.646 26.6339 177.51 26.294 177.51 25.824H176.51C176.51 26.506 176.716 27.1048 177.158 27.5747L177.887 26.8893ZM177.51 25.824C177.51 25.609 177.577 25.269 177.747 24.7801C177.914 24.2997 178.168 23.7091 178.515 23.0049L177.618 22.5631C177.261 23.2883 176.987 23.919 176.802 24.4519C176.62 24.9764 176.51 25.4417 176.51 25.824H177.51ZM178.515 23.0049C179.223 21.5682 179.637 20.4028 179.686 19.5485L178.687 19.4915C178.651 20.1306 178.318 21.1412 177.618 22.5631L178.515 23.0049ZM179.686 19.5512C179.715 19.072 179.56 18.6423 179.203 18.318L178.53 19.058C178.643 19.1604 178.7 19.2853 178.687 19.4888L179.686 19.5512ZM179.22 18.3344C178.889 18.0035 178.449 17.868 177.971 17.868V18.868C178.26 18.868 178.417 18.9458 178.513 19.0416L179.22 18.3344ZM177.971 17.868C177.501 17.868 177.034 17.9857 176.572 18.2041L177.001 19.1079C177.35 18.9423 177.672 18.868 177.971 18.868V17.868ZM176.583 18.1991C176.123 18.4038 175.687 18.7378 175.272 19.1761L175.997 19.8639C176.35 19.4915 176.682 19.2496 176.99 19.1129L176.583 18.1991ZM175.262 19.1866C174.896 19.5959 174.55 19.995 174.226 20.3839L174.995 21.0241C175.311 20.645 175.648 20.2547 176.007 19.8534L175.262 19.1866ZM174.216 20.397C173.893 20.8115 173.537 21.382 173.148 22.0966L174.025 22.5754C174.404 21.882 174.73 21.3645 175.005 21.011L174.216 20.397ZM173.142 22.107C172.78 22.809 172.473 23.3919 172.22 23.8566L173.097 24.3354C173.356 23.8614 173.667 23.271 174.031 22.565L173.142 22.107ZM172.213 23.8681C171.762 24.7495 171.119 26.0669 170.287 27.8172L171.19 28.2468C172.022 26.4985 172.659 25.1919 173.104 24.3239L172.213 23.8681ZM170.904 27.5601L168.984 26.8881L168.653 27.8319L170.573 28.5039L170.904 27.5601ZM169.319 27.36C169.319 27.4186 169.306 27.4642 169.312 27.4387C169.313 27.4346 169.315 27.424 169.32 27.4046C169.329 27.3667 169.345 27.3097 169.366 27.2316C169.409 27.0763 169.475 26.8489 169.562 26.5482C169.738 25.9473 170.002 25.0607 170.353 23.8877L169.396 23.6003C169.043 24.774 168.779 25.6634 168.603 26.2678C168.514 26.5698 168.448 26.8024 168.403 26.9644C168.38 27.045 168.363 27.1109 168.35 27.1604C168.344 27.1847 168.338 27.2088 168.334 27.2305C168.333 27.2309 168.319 27.2934 168.319 27.36H169.319ZM170.353 23.8877C170.706 22.7114 170.973 21.7673 171.151 21.0581C171.324 20.373 171.431 19.8494 171.431 19.552H170.431C170.431 19.7026 170.361 20.1016 170.182 20.8139C170.008 21.502 169.747 22.4299 169.396 23.6003L170.353 23.8877ZM171.431 19.552C171.431 19.0409 171.311 18.5494 170.945 18.2204L170.276 18.9636C170.337 19.0186 170.431 19.1671 170.431 19.552H171.431ZM170.964 18.2384C170.651 17.9252 170.254 17.772 169.811 17.772V18.772C170.007 18.772 170.144 18.8321 170.257 18.9456L170.964 18.2384ZM169.811 17.772C169.138 17.772 168.445 18.179 167.757 18.7956C167.051 19.428 166.267 20.3572 165.404 21.5654L166.217 22.1466C167.061 20.9654 167.797 20.1027 168.424 19.5404C169.069 18.9624 169.523 18.772 169.811 18.772V17.772ZM165.402 21.5678C163.703 23.9769 162.588 26.0686 162.097 27.8339L163.06 28.1021C163.507 26.4967 164.548 24.5138 166.219 22.1442L165.402 21.5678ZM162.737 27.4937L160.913 26.8857L160.596 27.8343L162.42 28.4423L162.737 27.4937ZM161.252 27.407C161.354 26.3341 161.839 24.3536 162.737 21.4266L161.78 21.1334C160.886 24.0518 160.369 26.1246 160.257 27.313L161.252 27.407ZM162.737 21.4256C163.633 18.4798 164.377 16.5258 164.963 15.5149L164.098 15.0131C163.447 16.1356 162.676 18.1922 161.78 21.1344L162.737 21.4256ZM164.363 15.7351L165.803 16.2471L166.138 15.3049L164.698 14.7929L164.363 15.7351ZM165.514 15.5711C164.847 17.0575 164.375 18.3352 164.109 19.3987L165.08 19.6413C165.326 18.6568 165.772 17.4385 166.427 15.9809L165.514 15.5711ZM164.11 19.3963C163.85 20.4143 163.623 21.5056 163.429 22.6698L164.416 22.8342C164.606 21.6944 164.827 20.631 165.079 19.6437L164.11 19.3963ZM164.332 23.0385C166.161 20.4226 167.667 18.6319 168.853 17.6299L168.208 16.8661C166.919 17.9548 165.353 19.8334 163.513 22.4655L164.332 23.0385ZM168.857 17.6267C170.057 16.5922 171.063 16.148 171.891 16.148V15.148C170.713 15.148 169.479 15.7704 168.204 16.8693L168.857 17.6267ZM171.891 16.148C172.357 16.148 172.616 16.2644 172.761 16.4096C172.906 16.5547 173.023 16.8131 173.023 17.28H174.023C174.023 16.6589 173.867 16.1013 173.468 15.7024C173.069 15.3036 172.512 15.148 171.891 15.148V16.148ZM173.023 17.28C173.023 17.4347 172.985 17.7069 172.891 18.1209C172.799 18.5262 172.658 19.039 172.468 19.6621L173.425 19.9539C173.619 19.3183 173.766 18.7805 173.866 18.3431C173.964 17.9144 174.023 17.5519 174.023 17.28H173.023ZM172.466 19.6696C172.103 20.9279 171.816 21.9189 171.603 22.6429L172.562 22.9251C172.776 22.1985 173.064 21.2054 173.427 19.9464L172.466 19.6696ZM172.507 23.048C173.967 20.6999 175.333 18.9677 176.601 17.8279C177.873 16.6846 178.998 16.18 179.987 16.18V15.18C178.65 15.18 177.295 15.8594 175.932 17.0841C174.566 18.3123 173.142 20.1321 171.658 22.52L172.507 23.048ZM179.987 16.18C180.448 16.18 180.767 16.3204 180.998 16.5667L181.727 15.8813C181.276 15.4023 180.677 15.18 179.987 15.18V16.18ZM181.009 16.5776C181.221 16.7895 181.375 17.1599 181.375 17.792H182.375C182.375 17.0161 182.187 16.3412 181.716 15.8704L181.009 16.5776ZM181.375 17.792C181.375 18.0484 181.295 18.4408 181.099 18.9927C180.906 19.5362 180.612 20.2009 180.212 20.99L181.105 21.442C181.515 20.6311 181.829 19.9251 182.042 19.3273C182.251 18.7378 182.375 18.2183 182.375 17.792H181.375ZM180.21 20.9948C179.813 21.8007 179.509 22.4686 179.305 22.9945C179.109 23.4962 178.975 23.9372 178.975 24.256H179.975C179.975 24.1481 180.037 23.8692 180.236 23.3575C180.426 22.8701 180.715 22.2313 181.107 21.4372L180.21 20.9948ZM178.975 24.256C178.975 24.7164 179.069 25.1605 179.357 25.4842L180.104 24.8198C180.051 24.7595 179.975 24.6062 179.975 24.256H178.975ZM179.357 25.4842C179.622 25.7825 179.971 25.94 180.371 25.94V24.94C180.258 24.94 180.18 24.9055 180.104 24.8198L179.357 25.4842ZM180.371 25.94C180.802 25.94 181.227 25.7365 181.627 25.4428C182.034 25.1435 182.468 24.7107 182.929 24.1616L182.164 23.5184C181.729 24.0359 181.353 24.4032 181.034 24.6372C180.708 24.8768 180.493 24.94 180.371 24.94V25.94ZM189.16 11.648L188.774 11.3301L188.774 11.3301L189.16 11.648ZM191.464 11.52L191.804 11.1536L191.804 11.1536L191.464 11.52ZM191.528 13.856L191.112 13.5786L191.112 13.5786L191.528 13.856ZM190.088 23.872L190.412 23.491L190.039 23.1743L189.715 23.5398L190.088 23.872ZM190.728 24.416L191.172 24.6473L191.356 24.2935L191.052 24.035L190.728 24.416ZM188.68 26.944L188.997 27.3305L188.998 27.3297L188.68 26.944ZM187.176 17.376L186.734 17.142L186.731 17.1478L187.176 17.376ZM187.848 16.096L188.107 15.6681L187.643 15.3878L187.401 15.8724L187.848 16.096ZM189.224 16.928L189.662 17.1698L189.894 16.749L189.483 16.5001L189.224 16.928ZM187.56 20.8L187.092 20.625L187.09 20.63L187.56 20.8ZM186.92 25.28L186.567 25.6336L186.567 25.6336L186.92 25.28ZM190.504 13.932C189.961 13.932 189.646 13.8207 189.473 13.6822C189.322 13.5606 189.212 13.3624 189.212 12.992H188.212C188.212 13.5816 188.401 14.1034 188.847 14.4618C189.272 14.8033 189.853 14.932 190.504 14.932V13.932ZM189.212 12.992C189.212 12.558 189.331 12.227 189.546 11.9659L188.774 11.3301C188.392 11.7944 188.212 12.3593 188.212 12.992H189.212ZM189.546 11.9659C189.75 11.7184 189.993 11.604 190.312 11.604V10.604C189.693 10.604 189.168 10.8523 188.774 11.3301L189.546 11.9659ZM190.312 11.604C190.676 11.604 190.932 11.7079 191.124 11.8864L191.804 11.1536C191.399 10.7774 190.887 10.604 190.312 10.604V11.604ZM191.124 11.8864C191.31 12.0592 191.412 12.2837 191.412 12.608H192.412C192.412 12.0363 192.216 11.5355 191.804 11.1536L191.124 11.8864ZM191.412 12.608C191.412 12.9542 191.315 13.2742 191.112 13.5786L191.944 14.1333C192.253 13.6698 192.412 13.1578 192.412 12.608H191.412ZM191.112 13.5786C190.94 13.837 190.748 13.932 190.504 13.932V14.932C191.114 14.932 191.605 14.643 191.944 14.1333L191.112 13.5786ZM189.764 24.253L190.404 24.797L191.052 24.035L190.412 23.491L189.764 24.253ZM190.285 24.1847C189.804 25.1068 189.164 25.8969 188.362 26.5583L188.998 27.3297C189.903 26.5831 190.629 25.6879 191.172 24.6473L190.285 24.1847ZM188.363 26.5575C187.572 27.2066 186.925 27.468 186.408 27.468V28.468C187.257 28.468 188.125 28.0467 188.997 27.3305L188.363 26.5575ZM186.408 27.468C185.941 27.468 185.659 27.3145 185.47 27.0524C185.26 26.7597 185.116 26.2592 185.116 25.472H184.116C184.116 26.3488 184.271 27.0963 184.658 27.6356C185.067 28.2055 185.681 28.468 186.408 28.468V27.468ZM185.116 25.472C185.116 23.5227 185.926 20.9099 187.621 17.6042L186.731 17.1478C185.013 20.4981 184.116 23.2826 184.116 25.472H185.116ZM187.618 17.6099C188.001 16.8877 188.228 16.4542 188.295 16.3196L187.401 15.8724C187.34 15.9938 187.12 16.4136 186.734 17.1421L187.618 17.6099ZM187.59 16.5239L188.966 17.3559L189.483 16.5001L188.107 15.6681L187.59 16.5239ZM188.787 16.6862C188.32 17.5306 187.755 18.8499 187.092 20.6251L188.029 20.9749C188.688 19.2088 189.233 17.9467 189.662 17.1698L188.787 16.6862ZM187.09 20.63C186.768 21.5211 186.523 22.2618 186.359 22.849C186.198 23.4213 186.1 23.893 186.1 24.224H187.1C187.1 24.043 187.162 23.688 187.322 23.119C187.477 22.5649 187.713 21.8496 188.03 20.97L187.09 20.63ZM186.1 24.224C186.1 24.7679 186.215 25.2823 186.567 25.6336L187.274 24.9264C187.198 24.8511 187.1 24.6614 187.1 24.224H186.1ZM186.567 25.6336C186.873 25.9396 187.255 26.1 187.688 26.1V25.1C187.524 25.1 187.394 25.0471 187.274 24.9264L186.567 25.6336ZM187.688 26.1C188.132 26.1 188.582 25.884 189.012 25.5738C189.454 25.2558 189.938 24.7941 190.462 24.2042L189.715 23.5398C189.215 24.1019 188.787 24.5042 188.428 24.7622C188.059 25.028 187.82 25.1 187.688 25.1V26.1Z" fill="black"/>
<path d="M222.848 24.0364C222.743 24.1058 221.853 24.2103 220.918 24.2443C219.386 24.2914 219 24.3938 217.79 25.0863L216.411 25.8652L215.78 25.0189C215.433 24.5663 215.044 24.1659 214.916 24.1241C214.653 24.0695 213.019 26.15 211.842 28.006C211.398 28.7509 210.938 29.3554 210.868 29.3256C210.78 29.3074 210.686 28.6638 210.668 27.8687C210.592 26.2549 210.443 25.8739 210.003 26.1629C209.492 26.4981 207.151 29.193 205.776 31.0533C205.044 32.0124 204.372 32.7556 204.29 32.7082C204.191 32.6724 204.23 32.1174 204.364 31.4755C204.708 29.9641 204.654 29.4201 204.227 29.4228C203.631 29.4359 202.614 30.2292 201.581 31.5368C200.33 33.0882 198.699 34.7128 198.437 34.6583C198.331 34.6517 198.348 34.0614 198.487 33.3903C198.621 32.6723 198.626 31.9885 198.476 31.7594C198.002 31.0369 197.333 31.4003 194.702 33.8066C191.242 36.9842 191.224 36.9958 191.321 34.9916C191.343 34.3722 191.288 33.8282 191.183 33.8216C191.096 33.8034 189.732 34.8747 188.161 36.2075C186.591 37.5403 185.227 38.6116 185.151 38.611C185.063 38.5929 185.032 38.0081 185.084 37.3188C185.163 36.2088 185.123 36.0331 184.755 35.972C184.405 35.8992 184.129 36.055 183.064 37.0058C182.37 37.6378 181.375 38.6183 180.85 39.2398C180.331 39.8322 179.825 40.2903 179.726 40.2545C179.633 40.1895 179.63 39.8387 179.72 39.477C179.895 38.7067 179.631 38.0735 179.151 38.1869C178.782 38.2777 176.396 40.7501 175.11 42.4007C173.924 43.9351 173.73 44.0622 171.88 44.4694C168.191 45.3015 163.729 46.4902 164.096 46.5514C164.33 46.5999 166.314 46.2053 168.551 45.6958C170.776 45.1686 172.883 44.7691 173.251 44.7543C173.614 44.7686 174.965 45.369 176.374 46.1334C179.093 47.6264 180.096 47.926 180.626 47.3513C180.868 47.0666 181.418 47.059 183.152 47.2822C184.355 47.4255 185.81 47.4538 186.384 47.3294L187.432 47.1209L187.46 46.4723L187.517 45.8297L188.953 46.1735C190.668 46.5602 192.136 46.5301 193.782 46.0045C194.854 45.6792 195.03 45.5636 195.215 45.1149C195.399 44.6662 195.604 44.6326 198.047 44.6682C200.379 44.7263 200.771 44.6707 201.511 44.1852L202.368 43.6479L201.714 42.7663C201.362 42.2669 201.119 41.8208 201.19 41.7746C201.448 41.6304 202.313 41.6426 204.661 41.8411C207.068 42.0517 208.244 41.8851 208.412 41.2959C208.466 41.1093 208.324 40.5471 208.106 40.0603C207.876 39.556 207.669 39.0868 207.658 38.9932C207.658 38.9172 208.883 38.5171 210.4 38.1016C213.954 37.1809 215.988 36.4769 216.265 36.0932C216.413 35.8955 216.357 35.5795 216.137 35.2447C215.733 34.628 215.715 34.6395 217.092 34.2405C218.421 33.847 220.254 32.6447 220.827 31.7897C221.306 31.0977 221.22 30.8515 220.273 30.0613C220.116 29.9374 220.347 29.4832 220.967 28.6987C222.306 27.0134 223.747 23.4468 222.848 24.0364ZM221.724 26.7403C221.1 28.1327 220.174 29.1429 219.166 29.6031L218.38 29.9421L219.155 30.3161C220.308 30.8448 220.625 31.4434 220.106 32.1117C219.498 32.9139 218.999 33.1908 217.118 33.8199C215.665 34.2943 215.261 34.3322 214.217 34.0849C213.534 33.9279 212.898 33.8414 212.774 33.9223C212.51 34.0957 212.545 34.1485 213.75 34.7186C214.333 34.9917 214.985 35.3706 215.206 35.5535C215.513 35.8305 215.513 35.9064 215.108 36.1723C214.491 36.5769 208.154 38.2896 207.125 38.3346C206.037 38.3675 205.76 38.7513 206.469 39.2943C207.114 39.7783 207.8 41.0167 207.576 41.2898C207.494 41.3944 205.851 41.3881 203.929 41.2629C201.995 41.12 200.33 41.0785 200.207 41.1595C199.889 41.3675 200.135 42.0883 200.797 42.7888C201.121 43.1302 201.376 43.5178 201.375 43.6698C201.393 44.3129 196.927 44.3443 194.483 43.73C192.878 43.3208 192.357 43.4104 192.996 43.9997C193.211 44.2117 193.571 44.53 193.774 44.7243C194.349 45.2546 193.896 45.602 192.381 45.7896C190.696 45.9876 189.002 45.7881 187.627 45.2285C186.421 44.7344 185.917 44.8885 186.414 45.6462C187.038 46.5977 186.685 46.9049 184.885 46.9267C183.236 46.9497 180.902 46.4648 180.624 46.0419C180.335 45.6014 179.907 45.8321 179.873 46.4339C179.847 46.7785 179.693 47.0814 179.535 47.1094C179.155 47.1826 174.823 44.8068 174.878 44.5441C174.945 44.2231 180.875 43.0043 186.071 42.2418C194.907 40.9567 197.361 40.2033 205.357 36.2933C211.757 33.1783 215.809 30.5954 219.04 27.568C221.895 24.8886 222.657 24.6663 221.724 26.7403ZM218.364 27.3818C217.087 28.5473 215.469 29.9616 214.781 30.4884C212.494 32.266 205.253 36.0588 199.484 38.4829C195.051 40.3324 193.049 40.8144 185.026 41.9945C182.171 42.406 178.806 43.0007 177.517 43.342C176.235 43.654 175.111 43.862 175.012 43.8262C174.75 43.6956 174.97 43.2238 175.837 42.0495C177.449 39.8577 178.973 38.5304 179.285 39.0062C179.343 39.0943 179.275 39.6432 179.142 40.2092C178.726 41.9188 179.037 41.7399 181.784 38.6271C182.379 37.9593 183.209 37.1881 183.632 36.9106C184.654 36.2401 184.891 36.6393 184.562 38.443C184.268 40.1477 184.56 40.2083 186.044 38.7053C186.621 38.1251 187.481 37.2838 187.952 36.8489C188.841 36.0138 190.621 34.7702 190.713 34.9112C190.736 34.9464 190.743 35.6479 190.714 36.4484C190.696 37.2666 190.726 37.9273 190.796 37.9571C190.872 37.9576 192.161 36.8098 193.662 35.3713C196.405 32.7904 197.574 31.9223 197.952 32.229C198.213 32.4355 197.912 34.4732 197.497 35.3002C197.33 35.6613 197.217 35.9878 197.263 36.0583C197.564 36.5165 199.294 34.9276 201.742 31.9354C202.821 30.6224 203.655 30.0499 203.91 30.4375C203.979 30.5432 203.885 31.3609 203.703 32.2363C203.522 33.1117 203.416 33.9117 203.474 33.9999C203.671 34.2994 204.248 33.7191 205.464 32.0389C207.578 29.1143 209.782 26.7107 210.013 27.0631C210.048 27.116 210.071 27.9578 210.052 28.928C210.035 31.2075 210.374 31.3386 211.422 29.5168C212.043 28.4283 214.459 25.0033 214.724 24.8299C214.776 24.7952 215.078 25.1774 215.39 25.6531C216.025 26.6223 216.008 26.6338 217.318 25.6732C217.701 25.3721 218.398 25.0908 218.89 24.9951C219.791 24.8322 220.767 24.8978 220.718 25.1313C220.718 25.2073 219.641 26.2164 218.364 27.3818Z" fill="black" stroke="black"/>
</svg>
