<svg width="1440" height="151" viewBox="0 0 1440 151" fill="none" xmlns="http://www.w3.org/2000/svg">
<path fill-rule="evenodd" clip-rule="evenodd" d="M1461.5 66.5902L1440 69.5C1440 69.5 1488.5 88.302 1469.5 67.5693C1450.5 46.8366 1399.1 68.8568 1305.5 64.3409C1234.64 60.9225 1116.45 50.7847 1072.5 46.8366C970.5 37.6729 830.5 28.4075 710 30.7111C589.5 33.0148 468.333 44.533 347.5 46.8366C226.667 49.1402 76.9168 14.8039 16.5001 12.5002L-77.9999 0.000244141L-14.9999 150.5H45.4167C105.833 150.5 226.667 150.5 347.5 150.5C468.333 150.5 589.167 150.5 710 150.5C830.833 150.5 951.667 150.5 1072.5 150.5C1193.33 150.5 1314.17 150.5 1374.58 150.5H1435L1461.5 66.5902Z" fill="#E8C9DF"/>
</svg>
